<svg width="271" height="271" viewBox="0 0 271 271" fill="none" xmlns="http://www.w3.org/2000/svg">
<path d="M208.28 0.413795C224.83 0.413795 240.701 6.98433 252.403 18.6799C264.106 30.3756 270.68 46.2382 270.68 62.7783V208.296C270.68 224.836 264.106 240.698 252.403 252.394C240.701 264.09 224.83 270.66 208.28 270.66H62.68C46.1305 270.66 30.2588 264.09 18.5566 252.394C6.8543 240.698 0.280029 224.836 0.280029 208.296L0.280029 62.7783C0.280029 46.2382 6.8543 30.3756 18.5566 18.6799C30.2588 6.98433 46.1305 0.413795 62.68 0.413795L208.28 0.413795Z" fill="white"/>
<path d="M191.932 107.161H188.842C188.771 107.164 188.7 107.153 188.633 107.128C188.566 107.103 188.505 107.064 188.454 107.015C188.402 106.966 188.361 106.907 188.333 106.841C188.305 106.775 188.291 106.705 188.291 106.634C188.291 106.562 188.305 106.492 188.333 106.426C188.361 106.361 188.402 106.301 188.454 106.252C188.505 106.203 188.566 106.164 188.633 106.139C188.7 106.114 188.771 106.103 188.842 106.106H191.984C192.058 106.105 192.131 106.121 192.198 106.152C192.264 106.183 192.323 106.229 192.369 106.287C192.406 106.336 192.432 106.392 192.443 106.453C192.454 106.513 192.451 106.575 192.433 106.634C192.44 106.7 192.432 106.766 192.411 106.829C192.39 106.891 192.356 106.948 192.311 106.997C192.262 107.049 192.204 107.09 192.139 107.119C192.074 107.147 192.003 107.161 191.932 107.161ZM185.7 107.161H182.559C182.487 107.164 182.416 107.153 182.349 107.128C182.283 107.103 182.222 107.064 182.17 107.015C182.118 106.966 182.077 106.907 182.049 106.841C182.021 106.775 182.007 106.705 182.007 106.634C182.007 106.562 182.021 106.492 182.049 106.426C182.077 106.361 182.118 106.301 182.17 106.252C182.222 106.203 182.283 106.164 182.349 106.139C182.416 106.114 182.487 106.103 182.559 106.106H185.704C185.775 106.103 185.846 106.114 185.913 106.139C185.98 106.164 186.041 106.203 186.092 106.252C186.144 106.301 186.185 106.361 186.213 106.426C186.241 106.492 186.255 106.562 186.255 106.634C186.255 106.705 186.241 106.775 186.213 106.841C186.185 106.907 186.144 106.966 186.092 107.015C186.041 107.064 185.98 107.103 185.913 107.128C185.846 107.153 185.775 107.164 185.704 107.161H185.7ZM179.389 107.161H176.247C176.111 107.155 175.983 107.097 175.889 106.999C175.795 106.9 175.742 106.77 175.742 106.634C175.742 106.498 175.795 106.367 175.889 106.269C175.983 106.17 176.111 106.112 176.247 106.106H179.389C179.525 106.112 179.653 106.17 179.747 106.269C179.841 106.367 179.894 106.498 179.894 106.634C179.894 106.77 179.841 106.9 179.747 106.999C179.653 107.097 179.525 107.155 179.389 107.161ZM173.078 107.161H169.935C169.799 107.155 169.671 107.097 169.577 106.999C169.483 106.9 169.43 106.77 169.43 106.634C169.43 106.498 169.483 106.367 169.577 106.269C169.671 106.17 169.799 106.112 169.935 106.106H173.078C173.214 106.112 173.342 106.17 173.436 106.269C173.53 106.367 173.583 106.498 173.583 106.634C173.583 106.77 173.53 106.9 173.436 106.999C173.342 107.097 173.214 107.155 173.078 107.161ZM166.766 107.161H163.625C163.554 107.164 163.483 107.153 163.416 107.128C163.349 107.103 163.288 107.064 163.237 107.015C163.185 106.966 163.144 106.907 163.116 106.841C163.088 106.775 163.074 106.705 163.074 106.634C163.074 106.562 163.088 106.492 163.116 106.426C163.144 106.361 163.185 106.301 163.237 106.252C163.288 106.203 163.349 106.164 163.416 106.139C163.483 106.114 163.554 106.103 163.625 106.106H166.767C166.839 106.103 166.91 106.114 166.977 106.139C167.043 106.164 167.104 106.203 167.156 106.252C167.207 106.301 167.249 106.361 167.277 106.426C167.305 106.492 167.319 106.562 167.319 106.634C167.319 106.705 167.305 106.775 167.277 106.841C167.249 106.907 167.207 106.966 167.156 107.015C167.104 107.064 167.043 107.103 166.977 107.128C166.91 107.153 166.839 107.164 166.767 107.161H166.766ZM160.482 107.161H157.34C157.204 107.155 157.075 107.097 156.981 106.999C156.887 106.9 156.835 106.77 156.835 106.634C156.835 106.498 156.887 106.367 156.981 106.269C157.075 106.17 157.204 106.112 157.34 106.106H160.483C160.619 106.112 160.747 106.17 160.841 106.269C160.935 106.367 160.987 106.498 160.987 106.634C160.987 106.77 160.935 106.9 160.841 106.999C160.747 107.097 160.619 107.155 160.483 107.161H160.482ZM154.17 107.161H151.029C150.893 107.155 150.765 107.097 150.671 106.999C150.577 106.9 150.524 106.77 150.524 106.634C150.524 106.498 150.577 106.367 150.671 106.269C150.765 106.17 150.893 106.112 151.029 106.106H154.171C154.307 106.112 154.435 106.17 154.529 106.269C154.623 106.367 154.676 106.498 154.676 106.634C154.676 106.77 154.623 106.9 154.529 106.999C154.435 107.097 154.307 107.155 154.171 107.161H154.17ZM147.858 107.161H144.718C144.647 107.164 144.576 107.153 144.509 107.128C144.442 107.103 144.381 107.064 144.33 107.015C144.278 106.966 144.237 106.907 144.209 106.841C144.181 106.775 144.167 106.705 144.167 106.634C144.167 106.562 144.181 106.492 144.209 106.426C144.237 106.361 144.278 106.301 144.33 106.252C144.381 106.203 144.442 106.164 144.509 106.139C144.576 106.114 144.647 106.103 144.718 106.106H147.86C147.931 106.103 148.003 106.114 148.069 106.139C148.136 106.164 148.197 106.203 148.249 106.252C148.3 106.301 148.341 106.361 148.369 106.426C148.397 106.492 148.412 106.562 148.412 106.634C148.412 106.705 148.397 106.775 148.369 106.841C148.341 106.907 148.3 106.966 148.249 107.015C148.197 107.064 148.136 107.103 148.069 107.128C148.003 107.153 147.931 107.164 147.86 107.161H147.858ZM141.547 107.161H138.408C138.336 107.164 138.265 107.153 138.198 107.128C138.131 107.103 138.07 107.064 138.019 107.015C137.967 106.966 137.926 106.907 137.898 106.841C137.87 106.775 137.856 106.705 137.856 106.634C137.856 106.562 137.87 106.492 137.898 106.426C137.926 106.361 137.967 106.301 138.019 106.252C138.07 106.203 138.131 106.164 138.198 106.139C138.265 106.114 138.336 106.103 138.408 106.106H141.549C141.685 106.112 141.814 106.17 141.908 106.269C142.002 106.367 142.054 106.498 142.054 106.634C142.054 106.77 142.002 106.9 141.908 106.999C141.814 107.097 141.685 107.155 141.549 107.161H141.547ZM135.262 107.161H132.122C132.05 107.164 131.979 107.153 131.913 107.128C131.846 107.103 131.785 107.064 131.733 107.015C131.682 106.966 131.641 106.907 131.613 106.841C131.584 106.775 131.57 106.705 131.57 106.634C131.57 106.562 131.584 106.492 131.613 106.426C131.641 106.361 131.682 106.301 131.733 106.252C131.785 106.203 131.846 106.164 131.913 106.139C131.979 106.114 132.05 106.103 132.122 106.106H135.264C135.335 106.103 135.406 106.114 135.473 106.139C135.54 106.164 135.601 106.203 135.652 106.252C135.704 106.301 135.745 106.361 135.773 106.426C135.801 106.492 135.815 106.562 135.815 106.634C135.815 106.705 135.801 106.775 135.773 106.841C135.745 106.907 135.704 106.966 135.652 107.015C135.601 107.064 135.54 107.103 135.473 107.128C135.406 107.153 135.335 107.164 135.264 107.161H135.262ZM128.951 107.161H125.81C125.674 107.155 125.546 107.097 125.452 106.999C125.358 106.9 125.305 106.77 125.305 106.634C125.305 106.498 125.358 106.367 125.452 106.269C125.546 106.17 125.674 106.112 125.81 106.106H128.953C129.089 106.112 129.217 106.17 129.311 106.269C129.405 106.367 129.458 106.498 129.458 106.634C129.458 106.77 129.405 106.9 129.311 106.999C129.217 107.097 129.089 107.155 128.953 107.161H128.951ZM122.639 107.161H119.5C119.364 107.155 119.236 107.097 119.142 106.999C119.048 106.9 118.995 106.77 118.995 106.634C118.995 106.498 119.048 106.367 119.142 106.269C119.236 106.17 119.364 106.112 119.5 106.106H122.642C122.778 106.112 122.906 106.17 123.001 106.269C123.095 106.367 123.147 106.498 123.147 106.634C123.147 106.77 123.095 106.9 123.001 106.999C122.906 107.097 122.778 107.155 122.642 107.161H122.639ZM116.327 107.161H113.189C113.117 107.164 113.046 107.153 112.979 107.128C112.913 107.103 112.852 107.064 112.8 107.015C112.748 106.966 112.707 106.907 112.679 106.841C112.651 106.775 112.637 106.705 112.637 106.634C112.637 106.562 112.651 106.492 112.679 106.426C112.707 106.361 112.748 106.301 112.8 106.252C112.852 106.203 112.913 106.164 112.979 106.139C113.046 106.114 113.117 106.103 113.189 106.106H116.336C116.407 106.103 116.478 106.114 116.545 106.139C116.612 106.164 116.673 106.203 116.724 106.252C116.776 106.301 116.817 106.361 116.845 106.426C116.873 106.492 116.887 106.562 116.887 106.634C116.887 106.705 116.873 106.775 116.845 106.841C116.817 106.907 116.776 106.966 116.724 107.015C116.673 107.064 116.612 107.103 116.545 107.128C116.478 107.153 116.407 107.164 116.336 107.161H116.327ZM110.043 107.161H106.904C106.768 107.155 106.64 107.097 106.546 106.999C106.451 106.9 106.399 106.77 106.399 106.634C106.399 106.498 106.451 106.367 106.546 106.269C106.64 106.17 106.768 106.112 106.904 106.106H110.046C110.184 106.11 110.316 106.167 110.415 106.265C110.513 106.364 110.57 106.495 110.574 106.634C110.574 106.774 110.518 106.908 110.419 107.006C110.32 107.105 110.186 107.161 110.047 107.161H110.043ZM103.731 107.161H100.593C100.457 107.155 100.329 107.097 100.235 106.999C100.141 106.9 100.088 106.77 100.088 106.634C100.088 106.498 100.141 106.367 100.235 106.269C100.329 106.17 100.457 106.112 100.593 106.106H103.735C103.806 106.103 103.877 106.114 103.944 106.139C104.011 106.164 104.072 106.203 104.124 106.252C104.175 106.301 104.216 106.361 104.244 106.426C104.272 106.492 104.287 106.562 104.287 106.634C104.287 106.705 104.272 106.775 104.244 106.841C104.216 106.907 104.175 106.966 104.124 107.015C104.072 107.064 104.011 107.103 103.944 107.128C103.877 107.153 103.806 107.164 103.735 107.161H103.731ZM97.4201 107.161H94.2824C94.2111 107.164 94.1399 107.153 94.0732 107.128C94.0064 107.103 93.9453 107.064 93.8938 107.015C93.8422 106.966 93.8012 106.907 93.7731 106.841C93.7451 106.775 93.7307 106.705 93.7307 106.634C93.7307 106.562 93.7451 106.492 93.7731 106.426C93.8012 106.361 93.8422 106.301 93.8938 106.252C93.9453 106.203 94.0064 106.164 94.0732 106.139C94.1399 106.114 94.2111 106.103 94.2824 106.106H97.4243C97.5602 106.112 97.6885 106.17 97.7826 106.269C97.8766 106.367 97.9291 106.498 97.9291 106.634C97.9291 106.77 97.8766 106.9 97.7826 106.999C97.6885 107.097 97.5602 107.155 97.4243 107.161H97.4201ZM90.9721 107.161H88.8162C88.6841 107.148 88.5437 107.141 88.4075 107.135C88.2712 107.129 88.1287 107.122 87.9977 107.109H87.9707C87.8307 107.095 87.7021 107.025 87.6131 106.917C87.524 106.808 87.4817 106.668 87.4954 106.528C87.5098 106.409 87.5637 106.297 87.6484 106.212C87.7332 106.127 87.844 106.072 87.9634 106.056H87.9551H87.9187H87.9894H87.9634C88.2504 106.08 88.5874 106.106 88.8994 106.106H90.9856C91.1215 106.112 91.2499 106.17 91.344 106.269C91.438 106.367 91.4905 106.498 91.4905 106.634C91.4905 106.77 91.438 106.9 91.344 106.999C91.2499 107.097 91.1215 107.155 90.9856 107.161H90.9721ZM194.934 106.713C194.821 106.716 194.711 106.681 194.62 106.614C194.529 106.547 194.463 106.452 194.432 106.344C194.407 106.279 194.396 106.208 194.399 106.138C194.403 106.068 194.422 105.999 194.454 105.936C194.487 105.874 194.532 105.819 194.588 105.776C194.643 105.732 194.707 105.701 194.776 105.684C195.692 105.42 196.565 105.02 197.363 104.497C197.452 104.446 197.552 104.419 197.654 104.417C197.698 104.412 197.742 104.417 197.783 104.433C197.823 104.448 197.86 104.473 197.889 104.505C197.914 104.554 197.927 104.607 197.927 104.661C197.927 104.716 197.914 104.769 197.889 104.817C197.962 104.933 197.986 105.073 197.956 105.206C197.926 105.34 197.845 105.456 197.73 105.53C197.65 105.584 197.561 105.634 197.475 105.691C197.39 105.749 197.306 105.795 197.229 105.847H197.125C196.478 106.198 195.796 106.481 195.091 106.691C195.043 106.708 194.993 106.714 194.943 106.708L194.934 106.713ZM84.0363 105.678C83.9738 105.682 83.9111 105.673 83.8523 105.652C83.4156 105.49 82.9918 105.296 82.5845 105.071H82.4805L82.4545 105.045L82.4275 105.019C82.3588 104.952 82.2835 104.893 82.2028 104.842L82.1903 104.834C82.1325 104.791 82.0839 104.736 82.0473 104.674C82.0107 104.612 81.9868 104.543 81.9771 104.471C81.9687 104.405 81.9735 104.337 81.9914 104.273C82.0092 104.208 82.0397 104.148 82.0811 104.095C82.1316 104.031 82.1957 103.979 82.2688 103.943C82.3418 103.907 82.422 103.888 82.5034 103.887H82.5263C82.546 103.887 82.5658 103.887 82.5699 103.876C82.5741 103.864 82.5523 103.821 82.3266 103.653C82.9276 104.056 83.5714 104.391 84.2464 104.652C84.3749 104.706 84.4771 104.808 84.5313 104.937C84.5855 105.065 84.5874 105.209 84.5366 105.339C84.4935 105.437 84.4237 105.52 84.3352 105.58C84.2467 105.64 84.1431 105.674 84.0363 105.678ZM82.2923 103.627C82.1155 103.509 81.9387 103.382 81.765 103.251C82.0239 103.431 82.181 103.543 82.2933 103.626L82.2923 103.627ZM199.933 103.488C199.807 103.484 199.686 103.438 199.59 103.356C199.538 103.315 199.495 103.264 199.463 103.207C199.432 103.149 199.412 103.085 199.407 103.019C199.4 102.947 199.408 102.874 199.431 102.804C199.453 102.735 199.49 102.671 199.538 102.617C200.172 101.901 200.706 101.102 201.123 100.242C201.167 100.154 201.234 100.08 201.318 100.029C201.402 99.9772 201.499 99.9502 201.597 99.9507C201.637 99.9519 201.677 99.9564 201.716 99.9642C201.756 99.972 201.795 99.9766 201.835 99.9777C201.898 100.009 201.954 100.052 202 100.104C202.046 100.157 202.081 100.218 202.103 100.284C202.125 100.35 202.134 100.42 202.129 100.49C202.124 100.559 202.105 100.627 202.073 100.69C201.604 101.63 201.018 102.508 200.33 103.303C200.284 103.363 200.223 103.411 200.154 103.444C200.085 103.476 200.009 103.491 199.933 103.488ZM79.1775 100.69C79.0961 100.688 79.016 100.669 78.943 100.633C78.8699 100.597 78.8058 100.546 78.7552 100.482C78.7517 100.482 78.7482 100.481 78.745 100.48C78.7418 100.478 78.7389 100.476 78.7364 100.474C78.734 100.471 78.7321 100.468 78.7309 100.465C78.7296 100.462 78.7291 100.458 78.7292 100.455L78.7032 100.429L78.6751 100.405V100.326C78.5946 100.164 78.5251 99.9964 78.4671 99.8249C78.4245 99.6923 78.4328 99.5485 78.4905 99.4217C78.5482 99.2948 78.6511 99.194 78.7791 99.1389C78.8384 99.1176 78.9014 99.1088 78.9643 99.113H79.0381C79.0554 99.1137 79.0727 99.1112 79.0891 99.1057C78.7466 98.5448 78.4573 97.9533 78.2248 97.3387C79.0152 98.6618 79.1504 98.9768 79.1182 99.0724C79.1159 99.0793 79.1121 99.0856 79.1071 99.0908C79.102 99.0961 79.0959 99.1001 79.0891 99.1026C79.2451 99.3562 79.4167 99.6067 79.5976 99.8457C79.6406 99.9002 79.6721 99.9628 79.69 100.03C79.7078 100.097 79.7118 100.167 79.7016 100.236C79.6798 100.374 79.6053 100.499 79.4936 100.585C79.4032 100.655 79.2917 100.692 79.1775 100.69ZM202.495 98.1567H202.416C202.282 98.1287 202.163 98.0502 202.084 97.9373C202.006 97.8244 201.973 97.6856 201.994 97.5497C202.077 96.9904 202.122 96.426 202.126 95.8606V94.5676C202.126 94.4276 202.182 94.2933 202.281 94.1943C202.38 94.0952 202.514 94.0396 202.655 94.0396C202.714 94.0384 202.773 94.0496 202.828 94.0723C202.882 94.095 202.932 94.1288 202.973 94.1716C203.125 94.376 203.191 94.6321 203.156 94.8846V96.2837C203.151 96.7615 203.107 97.2382 203.024 97.7087C203.003 97.8338 202.939 97.9475 202.842 98.0296C202.745 98.1116 202.622 98.1567 202.495 98.1567ZM78.359 96.6527H78.3059C78.1753 96.6506 78.0499 96.6014 77.9527 96.5141C77.8556 96.4268 77.7934 96.3073 77.7776 96.1777C77.7554 96.099 77.7466 96.0171 77.7516 95.9355V93.6176C77.7516 93.4776 77.8073 93.3433 77.9064 93.2442C78.0054 93.1452 78.1398 93.0896 78.2799 93.0896C78.3735 93.0932 78.4661 93.1107 78.5545 93.1415C78.6034 93.1592 78.6545 93.1704 78.7063 93.1748C78.7781 93.1748 78.8103 93.126 78.8103 93.0106V95.2806C78.8054 95.5536 78.8144 95.8266 78.8374 96.0987C78.8432 96.1666 78.8353 96.235 78.8143 96.2999C78.7933 96.3647 78.7595 96.4247 78.7149 96.4764C78.6703 96.528 78.6159 96.5702 78.5548 96.6005C78.4936 96.6307 78.4271 96.6485 78.359 96.6527ZM202.656 91.9545C202.515 91.9545 202.381 91.8989 202.282 91.7999C202.183 91.7009 202.127 91.5666 202.127 91.4265V88.2865C202.124 88.2152 202.135 88.1441 202.161 88.0773C202.186 88.0106 202.224 87.9496 202.273 87.8981C202.323 87.8465 202.382 87.8055 202.448 87.7775C202.513 87.7495 202.584 87.735 202.655 87.735C202.726 87.735 202.797 87.7495 202.863 87.7775C202.928 87.8055 202.988 87.8465 203.037 87.8981C203.086 87.9496 203.125 88.0106 203.15 88.0773C203.175 88.1441 203.186 88.2152 203.183 88.2865V91.4265C203.183 91.5664 203.127 91.7005 203.029 91.7995C202.93 91.8985 202.796 91.9543 202.656 91.9545ZM78.2799 90.9785C78.1398 90.9785 78.0054 90.9229 77.9064 90.8239C77.8073 90.7249 77.7516 90.5906 77.7516 90.4505V87.3084C77.7576 87.1725 77.8159 87.0442 77.9142 86.9502C78.0125 86.8562 78.1433 86.8038 78.2794 86.8038C78.4155 86.8038 78.5463 86.8562 78.6446 86.9502C78.7429 87.0442 78.8012 87.1725 78.8072 87.3084V90.4484C78.8075 90.5179 78.7941 90.5867 78.7677 90.6509C78.7413 90.7151 78.7026 90.7735 78.6536 90.8228C78.6046 90.872 78.5464 90.9111 78.4823 90.9378C78.4182 90.9646 78.3494 90.9784 78.2799 90.9785ZM202.656 85.6453C202.515 85.6451 202.381 85.5892 202.282 85.49C202.183 85.3908 202.127 85.2564 202.127 85.1163V81.9793C202.124 81.9081 202.135 81.8369 202.161 81.7702C202.186 81.7034 202.224 81.6424 202.273 81.5909C202.323 81.5394 202.382 81.4984 202.448 81.4704C202.513 81.4423 202.584 81.4279 202.655 81.4279C202.726 81.4279 202.797 81.4423 202.863 81.4704C202.928 81.4984 202.988 81.5394 203.037 81.5909C203.086 81.6424 203.125 81.7034 203.15 81.7702C203.175 81.8369 203.186 81.9081 203.183 81.9793V85.1194C203.182 85.2588 203.126 85.3923 203.027 85.4907C202.929 85.5892 202.795 85.6448 202.656 85.6453ZM78.2799 84.6714C78.1397 84.6711 78.0053 84.6153 77.9063 84.5161C77.8072 84.4169 77.7516 84.2825 77.7516 84.1423V81.0023C77.7484 80.931 77.7598 80.8599 77.7849 80.7931C77.8099 80.7264 77.8483 80.6654 77.8976 80.6139C77.947 80.5623 78.0062 80.5213 78.0718 80.4933C78.1374 80.4653 78.2081 80.4508 78.2794 80.4508C78.3508 80.4508 78.4214 80.4653 78.487 80.4933C78.5526 80.5213 78.6119 80.5623 78.6612 80.6139C78.7105 80.6654 78.7489 80.7264 78.774 80.7931C78.7991 80.8599 78.8104 80.931 78.8072 81.0023V84.1423C78.8072 84.2823 78.7517 84.4165 78.6529 84.5157C78.5541 84.6149 78.42 84.6708 78.2799 84.6714ZM202.656 79.3403C202.515 79.3403 202.381 79.2846 202.282 79.1856C202.183 79.0866 202.127 78.9523 202.127 78.8123V75.667C202.124 75.5958 202.135 75.5246 202.161 75.4579C202.186 75.3911 202.224 75.3301 202.273 75.2786C202.323 75.2271 202.382 75.186 202.448 75.158C202.513 75.13 202.584 75.1156 202.655 75.1156C202.726 75.1156 202.797 75.13 202.863 75.158C202.928 75.186 202.988 75.2271 203.037 75.2786C203.086 75.3301 203.125 75.3911 203.15 75.4579C203.175 75.5246 203.186 75.5958 203.183 75.667V78.8081C203.183 78.8777 203.17 78.9467 203.144 79.0112C203.118 79.0757 203.079 79.1343 203.03 79.1838C202.981 79.2332 202.923 79.2725 202.858 79.2994C202.794 79.3262 202.725 79.3401 202.656 79.3403ZM78.2799 78.3892C78.14 78.3892 78.0058 78.3337 77.9067 78.2349C77.8077 78.1361 77.7519 78.0021 77.7516 77.8622V74.7211C77.7516 74.6518 77.7653 74.5831 77.7918 74.5191C77.8184 74.455 77.8573 74.3968 77.9064 74.3478C77.9554 74.2987 78.0137 74.2598 78.0778 74.2333C78.1419 74.2068 78.2106 74.1931 78.2799 74.1931C78.4161 74.1909 78.5477 74.2421 78.6465 74.3357C78.7453 74.4294 78.8034 74.5581 78.8083 74.6941V77.8602C78.8084 77.9296 78.7948 77.9984 78.7683 78.0625C78.7418 78.1267 78.703 78.1851 78.6539 78.2342C78.6048 78.2833 78.5465 78.3223 78.4824 78.3489C78.4182 78.3755 78.3494 78.3892 78.2799 78.3892ZM202.656 73.0321C202.586 73.0321 202.518 73.0184 202.453 72.9919C202.389 72.9654 202.331 72.9265 202.282 72.8774C202.233 72.8284 202.194 72.7702 202.168 72.7061C202.141 72.6421 202.127 72.5734 202.127 72.5041V69.364C202.124 69.2928 202.135 69.2216 202.161 69.1549C202.186 69.0881 202.224 69.0271 202.273 68.9756C202.323 68.9241 202.382 68.8831 202.448 68.855C202.513 68.827 202.584 68.8126 202.655 68.8126C202.726 68.8126 202.797 68.827 202.863 68.855C202.928 68.8831 202.988 68.9241 203.037 68.9756C203.086 69.0271 203.125 69.0881 203.15 69.1549C203.175 69.2216 203.186 69.2928 203.183 69.364V72.5041C203.183 72.6439 203.127 72.7781 203.029 72.8771C202.93 72.9761 202.796 73.0318 202.656 73.0321ZM78.2799 72.0821C78.1399 72.0818 78.0057 72.0261 77.9067 71.9271C77.8076 71.8282 77.7519 71.694 77.7516 71.5541V68.414C77.7576 68.2782 77.8159 68.1499 77.9142 68.0559C78.0125 67.9619 78.1433 67.9094 78.2794 67.9094C78.4155 67.9094 78.5463 67.9619 78.6446 68.0559C78.7429 68.1499 78.8012 68.2782 78.8072 68.414V71.5541C78.8069 71.6938 78.7513 71.8278 78.6525 71.9268C78.5537 72.0257 78.4198 72.0815 78.2799 72.0821ZM202.656 66.7509C202.515 66.7509 202.381 66.6953 202.282 66.5963C202.183 66.4973 202.127 66.363 202.127 66.2229V63.0829C202.124 63.0116 202.135 62.9405 202.161 62.8737C202.186 62.807 202.224 62.746 202.273 62.6945C202.323 62.6429 202.382 62.6019 202.448 62.5739C202.513 62.5459 202.584 62.5314 202.655 62.5314C202.726 62.5314 202.797 62.5459 202.863 62.5739C202.928 62.6019 202.988 62.6429 203.037 62.6945C203.086 62.746 203.125 62.807 203.15 62.8737C203.175 62.9405 203.186 63.0116 203.183 63.0829V66.224C203.183 66.3636 203.127 66.4975 203.028 66.5963C202.929 66.6951 202.795 66.7507 202.656 66.7509ZM78.2799 65.7749C78.2106 65.7749 78.1419 65.7613 78.0778 65.7348C78.0137 65.7082 77.9554 65.6693 77.9064 65.6203C77.8573 65.5713 77.8184 65.5131 77.7918 65.449C77.7653 65.3849 77.7516 65.3163 77.7516 65.2469V62.1069C77.7484 62.0356 77.7598 61.9645 77.7849 61.8977C77.8099 61.831 77.8483 61.77 77.8976 61.7185C77.947 61.6669 78.0062 61.6259 78.0718 61.5979C78.1374 61.5699 78.2081 61.5554 78.2794 61.5554C78.3508 61.5554 78.4214 61.5699 78.487 61.5979C78.5526 61.6259 78.6119 61.6669 78.6612 61.7185C78.7105 61.77 78.7489 61.831 78.774 61.8977C78.7991 61.9645 78.8104 62.0356 78.8072 62.1069V65.2469C78.8072 65.3868 78.7517 65.5209 78.6528 65.6199C78.554 65.7189 78.4199 65.7747 78.2799 65.7749ZM202.656 60.4438C202.515 60.4438 202.381 60.3882 202.282 60.2892C202.183 60.1901 202.127 60.0558 202.127 59.9158V56.7757C202.124 56.7045 202.135 56.6334 202.161 56.5666C202.186 56.4998 202.224 56.4389 202.273 56.3873C202.323 56.3358 202.382 56.2948 202.448 56.2668C202.513 56.2387 202.584 56.2243 202.655 56.2243C202.726 56.2243 202.797 56.2387 202.863 56.2668C202.928 56.2948 202.988 56.3358 203.037 56.3873C203.086 56.4389 203.125 56.4998 203.15 56.5666C203.175 56.6334 203.186 56.7045 203.183 56.7757V59.9158C203.183 60.0557 203.127 60.1898 203.029 60.2888C202.93 60.3878 202.796 60.4435 202.656 60.4438ZM78.2799 59.4668C78.1398 59.4668 78.0054 59.4111 77.9064 59.3121C77.8073 59.2131 77.7516 59.0788 77.7516 58.9388V55.7987C77.7484 55.7275 77.7598 55.6563 77.7849 55.5896C77.8099 55.5228 77.8483 55.4618 77.8976 55.4103C77.947 55.3588 78.0062 55.3177 78.0718 55.2897C78.1374 55.2617 78.2081 55.2473 78.2794 55.2473C78.3508 55.2473 78.4214 55.2617 78.487 55.2897C78.5526 55.3177 78.6119 55.3588 78.6612 55.4103C78.7105 55.4618 78.7489 55.5228 78.774 55.5896C78.7991 55.6563 78.8104 55.7275 78.8072 55.7987V58.9388C78.8072 59.0786 78.7517 59.2128 78.6528 59.3118C78.554 59.4107 78.4199 59.4665 78.2799 59.4668ZM202.656 54.1367C202.516 54.1364 202.381 54.0807 202.282 53.9817C202.183 53.8828 202.128 53.7486 202.127 53.6087V50.4676C202.124 50.3963 202.135 50.3252 202.161 50.2584C202.186 50.1917 202.224 50.1307 202.273 50.0792C202.323 50.0276 202.382 49.9866 202.448 49.9586C202.513 49.9306 202.584 49.9161 202.655 49.9161C202.726 49.9161 202.797 49.9306 202.863 49.9586C202.928 49.9866 202.988 50.0276 203.037 50.0792C203.086 50.1307 203.125 50.1917 203.15 50.2584C203.175 50.3252 203.186 50.3963 203.183 50.4676V53.6076C203.183 53.7476 203.127 53.8818 203.029 53.981C202.93 54.0802 202.796 54.1361 202.656 54.1367ZM78.2799 53.1856C78.14 53.1856 78.0058 53.1301 77.9067 53.0313C77.8077 52.9325 77.7519 52.7985 77.7516 52.6586V49.5186C77.7516 49.3785 77.8072 49.244 77.9063 49.1449C78.0053 49.0457 78.1397 48.9898 78.2799 48.9895C78.3501 48.9871 78.42 48.9991 78.4853 49.0248C78.5505 49.0505 78.6098 49.0894 78.6594 49.139C78.709 49.1887 78.7478 49.248 78.7734 49.3133C78.799 49.3786 78.8109 49.4485 78.8083 49.5186V52.6586C78.808 52.7985 78.7522 52.9325 78.6531 53.0313C78.5541 53.1301 78.4199 53.1856 78.2799 53.1856ZM202.656 47.8285C202.515 47.8285 202.381 47.7729 202.282 47.6739C202.183 47.5748 202.127 47.4405 202.127 47.3005V44.1604C202.124 44.0892 202.135 44.0181 202.161 43.9513C202.186 43.8845 202.224 43.8236 202.273 43.772C202.323 43.7205 202.382 43.6795 202.448 43.6515C202.513 43.6234 202.584 43.609 202.655 43.609C202.726 43.609 202.797 43.6234 202.863 43.6515C202.928 43.6795 202.988 43.7205 203.037 43.772C203.086 43.8236 203.125 43.8845 203.15 43.9513C203.175 44.0181 203.186 44.0892 203.183 44.1604V47.3015C203.183 47.4412 203.127 47.5751 203.028 47.6739C202.929 47.7726 202.795 47.8282 202.656 47.8285ZM78.2799 46.8754C78.1412 46.8754 78.0081 46.8209 77.9093 46.7237C77.8104 46.6264 77.7538 46.4943 77.7516 46.3557V43.2104C77.7576 43.0746 77.8159 42.9463 77.9142 42.8523C78.0125 42.7583 78.1433 42.7058 78.2794 42.7058C78.4155 42.7058 78.5463 42.7583 78.6446 42.8523C78.7429 42.9463 78.8012 43.0746 78.8072 43.2104V46.3557C78.805 46.4941 78.7485 46.6261 78.6499 46.7233C78.5513 46.8205 78.4184 46.8751 78.2799 46.8754ZM202.656 41.5484C202.515 41.5481 202.381 41.4923 202.282 41.3931C202.183 41.2939 202.127 41.1595 202.127 41.0193V37.8793C202.124 37.808 202.135 37.7369 202.161 37.6701C202.186 37.6034 202.224 37.5424 202.273 37.4909C202.323 37.4393 202.382 37.3983 202.448 37.3703C202.513 37.3423 202.584 37.3278 202.655 37.3278C202.726 37.3278 202.797 37.3423 202.863 37.3703C202.928 37.3983 202.988 37.4393 203.037 37.4909C203.086 37.5424 203.125 37.6034 203.15 37.6701C203.175 37.7369 203.186 37.808 203.183 37.8793V41.0193C203.183 41.1593 203.127 41.2936 203.029 41.3927C202.93 41.4919 202.796 41.5479 202.656 41.5484ZM78.3059 40.3333C78.1662 40.3333 78.0321 40.278 77.9331 40.1794C77.8341 40.0808 77.7782 39.9471 77.7776 39.8074V36.8763C77.7934 36.7467 77.8556 36.6272 77.9527 36.5399C78.0499 36.4525 78.1753 36.4033 78.3059 36.4012C78.3059 36.4012 78.334 36.4012 78.385 36.1632C78.5204 36.1769 78.6453 36.2422 78.7339 36.3456C78.8224 36.449 78.8676 36.5824 78.8603 36.7183C78.8386 36.9553 78.8299 37.1933 78.8343 37.4313V39.8074C78.8334 39.947 78.7774 40.0806 78.6785 40.1791C78.5795 40.2776 78.4456 40.3331 78.3059 40.3333ZM202.283 35.4242C202.167 35.4256 202.054 35.387 201.962 35.3149C201.871 35.2428 201.808 35.1416 201.782 35.0282C201.525 34.1092 201.143 33.2299 200.646 32.4151C200.583 32.2949 200.566 32.1552 200.6 32.0235C200.634 31.8918 200.716 31.7775 200.83 31.7031C200.908 31.6493 201 31.6216 201.095 31.6241C201.262 31.6241 201.451 31.6813 201.702 32.0991V32.1511C202.045 32.7404 202.337 33.3584 202.573 33.9981C202.599 34.0241 202.599 34.0241 202.599 34.0501V34.1842C202.661 34.3366 202.712 34.4929 202.752 34.6519L202.785 34.7642C202.803 34.8272 202.809 34.8934 202.802 34.9587C202.795 35.0241 202.774 35.0873 202.742 35.1446C202.707 35.2065 202.661 35.2608 202.604 35.3042C202.548 35.3476 202.484 35.3792 202.415 35.3972C202.375 35.4185 202.329 35.4279 202.283 35.4242ZM79.3366 33.9732C79.2737 33.9774 79.2107 33.9685 79.1515 33.9472C79.0208 33.8928 78.9151 33.7916 78.8551 33.6634C78.8236 33.6012 78.8054 33.5331 78.8019 33.4635C78.7983 33.3938 78.8093 33.3242 78.8343 33.2591L78.879 33.1375C78.9435 32.9546 79.0185 32.7755 79.1036 32.6012V32.3101C79.3548 31.8742 79.6279 31.4513 79.9221 31.0431C79.9729 30.9793 80.0372 30.9276 80.1104 30.8916C80.1836 30.8557 80.2638 30.8364 80.3454 30.8352H80.4026C80.5066 30.8352 80.6678 30.7801 81.0848 30.3841C81.1945 30.4698 81.2667 30.5948 81.2861 30.7326C81.3055 30.8705 81.2706 31.0105 81.1888 31.1231C80.6199 31.8895 80.1646 32.7339 79.8368 33.6302C79.7969 33.7305 79.7281 33.8168 79.639 33.8779C79.5499 33.939 79.4446 33.9721 79.3366 33.9732ZM199.224 30.3321C199.156 30.3368 199.088 30.3274 199.025 30.3045C198.961 30.2816 198.903 30.2457 198.853 30.1991C198.166 29.5399 197.383 28.9883 196.53 28.5631C196.467 28.5322 196.411 28.4893 196.365 28.4367C196.319 28.3841 196.284 28.323 196.262 28.2567C196.24 28.1905 196.231 28.1206 196.236 28.0509C196.241 27.9813 196.26 27.9134 196.292 27.8511C196.339 27.7651 196.407 27.693 196.49 27.6419C196.574 27.5908 196.669 27.5626 196.767 27.56C196.847 27.56 196.933 27.5923 198.113 28.3521L198.193 28.3916L198.272 28.43H198.404L198.43 28.457L198.456 28.483L198.482 28.509L198.509 28.535L198.535 28.561C198.905 28.8286 199.258 29.1195 199.591 29.432C199.639 29.4749 199.678 29.5268 199.705 29.5848C199.733 29.6428 199.749 29.7057 199.752 29.7698C199.762 29.9161 199.713 30.0603 199.617 30.171C199.511 30.2723 199.37 30.3298 199.224 30.3321ZM82.4524 29.7511C82.3709 29.7499 82.2906 29.7306 82.2174 29.6947C82.1442 29.6588 82.0799 29.607 82.0291 29.5432C81.9844 29.4897 81.951 29.4277 81.9307 29.3609C81.9105 29.2942 81.9039 29.224 81.9114 29.1547C81.9189 29.0853 81.9403 29.0182 81.9742 28.9573C82.0082 28.8963 82.0541 28.8429 82.1092 28.8001C82.9317 28.1426 83.8462 27.6092 84.8236 27.217C84.8839 27.1941 84.9486 27.1849 85.0129 27.19C85.1217 27.1884 85.2283 27.2205 85.3181 27.2819C85.4078 27.3433 85.4763 27.4311 85.5142 27.533C85.5646 27.6628 85.5624 27.8071 85.5079 27.9353C85.4818 27.999 85.4432 28.0569 85.3945 28.1056C85.3457 28.1544 85.2878 28.1929 85.224 28.219C84.3436 28.5788 83.5173 29.0587 82.7686 29.6451C82.6798 29.7181 82.5673 29.7559 82.4524 29.7511ZM193.913 27.639H193.809C193.175 27.5109 192.529 27.4489 191.881 27.454H188.739C188.603 27.448 188.475 27.3898 188.381 27.2915C188.287 27.1932 188.234 27.0625 188.234 26.9265C188.234 26.7905 188.287 26.6598 188.381 26.5615C188.475 26.4633 188.603 26.4051 188.739 26.399H191.881C191.908 26.399 191.908 26.399 192.198 26.425H192.382C192.933 26.4445 193.482 26.5053 194.024 26.6069C194.091 26.6187 194.156 26.6438 194.214 26.6807C194.272 26.7177 194.322 26.7658 194.362 26.8223C194.401 26.8787 194.429 26.9424 194.443 27.0097C194.457 27.0769 194.458 27.1463 194.446 27.2139C194.416 27.3331 194.347 27.4391 194.251 27.5158C194.155 27.5925 194.036 27.6358 193.913 27.639ZM88.604 27.481H88.552C88.4215 27.4786 88.2963 27.4292 88.1993 27.3419C88.1023 27.2547 88.0399 27.1355 88.0237 27.006C88.0098 26.866 88.052 26.7262 88.1411 26.6173C88.2302 26.5083 88.3589 26.4392 88.499 26.425C88.5388 26.4237 88.5784 26.4192 88.6175 26.4115C88.6566 26.4041 88.6963 26.4 88.7361 26.399H91.0064C91.1999 26.4198 91.3855 26.4872 91.5472 26.5955C91.7574 26.7093 91.9737 26.8113 92.1951 26.9011C92.1951 26.9704 92.1815 27.0391 92.1549 27.1031C92.1284 27.1672 92.0894 27.2254 92.0404 27.2744C91.9413 27.3734 91.8069 27.4291 91.6668 27.4291H89.6908C89.3112 27.428 88.9316 27.4551 88.604 27.481ZM185.594 27.454H182.453C182.381 27.4572 182.31 27.4459 182.243 27.4208C182.177 27.3957 182.116 27.3574 182.064 27.3081C182.012 27.2588 181.971 27.1996 181.943 27.134C181.915 27.0684 181.901 26.9978 181.901 26.9265C181.901 26.8552 181.915 26.7846 181.943 26.7191C181.971 26.6535 182.012 26.5943 182.064 26.545C182.116 26.4957 182.177 26.4573 182.243 26.4322C182.31 26.4072 182.381 26.3959 182.453 26.399H185.6C185.736 26.4051 185.864 26.4633 185.958 26.5615C186.052 26.6598 186.104 26.7905 186.104 26.9265C186.104 27.0625 186.052 27.1932 185.958 27.2915C185.864 27.3898 185.736 27.448 185.6 27.454H185.594ZM179.283 27.454H176.141C176.005 27.448 175.877 27.3898 175.782 27.2915C175.688 27.1932 175.636 27.0625 175.636 26.9265C175.636 26.7905 175.688 26.6598 175.782 26.5615C175.877 26.4633 176.005 26.4051 176.141 26.399H179.283C179.354 26.3959 179.425 26.4072 179.492 26.4322C179.559 26.4573 179.62 26.4957 179.671 26.545C179.723 26.5943 179.764 26.6535 179.792 26.7191C179.82 26.7846 179.834 26.8552 179.834 26.9265C179.834 26.9978 179.82 27.0684 179.792 27.134C179.764 27.1996 179.723 27.2588 179.671 27.3081C179.62 27.3574 179.559 27.3957 179.492 27.4208C179.425 27.4459 179.354 27.4572 179.283 27.454ZM172.972 27.454H169.83C169.759 27.4572 169.688 27.4459 169.621 27.4208C169.554 27.3957 169.493 27.3574 169.441 27.3081C169.39 27.2588 169.349 27.1996 169.321 27.134C169.293 27.0684 169.278 26.9978 169.278 26.9265C169.278 26.8552 169.293 26.7846 169.321 26.7191C169.349 26.6535 169.39 26.5943 169.441 26.545C169.493 26.4957 169.554 26.4573 169.621 26.4322C169.688 26.4072 169.759 26.3959 169.83 26.399H172.972C173.108 26.4051 173.236 26.4633 173.33 26.5615C173.424 26.6598 173.477 26.7905 173.477 26.9265C173.477 27.0625 173.424 27.1932 173.33 27.2915C173.236 27.3898 173.108 27.448 172.972 27.454ZM166.66 27.454H163.519C163.448 27.4572 163.377 27.4459 163.31 27.4208C163.243 27.3957 163.182 27.3574 163.131 27.3081C163.079 27.2588 163.038 27.1996 163.01 27.134C162.982 27.0684 162.968 26.9978 162.968 26.9265C162.968 26.8552 162.982 26.7846 163.01 26.7191C163.038 26.6535 163.079 26.5943 163.131 26.545C163.182 26.4957 163.243 26.4573 163.31 26.4322C163.377 26.4072 163.448 26.3959 163.519 26.399H166.661C166.732 26.3959 166.804 26.4072 166.87 26.4322C166.937 26.4573 166.998 26.4957 167.05 26.545C167.101 26.5943 167.142 26.6535 167.17 26.7191C167.199 26.7846 167.213 26.8552 167.213 26.9265C167.213 26.9978 167.199 27.0684 167.17 27.134C167.142 27.1996 167.101 27.2588 167.05 27.3081C166.998 27.3574 166.937 27.3957 166.87 27.4208C166.804 27.4459 166.732 27.4572 166.661 27.454H166.66ZM160.375 27.454H157.235C157.163 27.4572 157.092 27.4459 157.025 27.4208C156.959 27.3957 156.898 27.3574 156.846 27.3081C156.794 27.2588 156.753 27.1996 156.725 27.134C156.697 27.0684 156.683 26.9978 156.683 26.9265C156.683 26.8552 156.697 26.7846 156.725 26.7191C156.753 26.6535 156.794 26.5943 156.846 26.545C156.898 26.4957 156.959 26.4573 157.025 26.4322C157.092 26.4072 157.163 26.3959 157.235 26.399H160.376C160.515 26.4032 160.647 26.4602 160.745 26.5583C160.844 26.6564 160.901 26.7883 160.905 26.927C160.905 27.0667 160.849 27.2006 160.75 27.2994C160.651 27.3981 160.517 27.4537 160.378 27.454H160.375ZM154.064 27.454H150.897C150.826 27.4572 150.754 27.4459 150.688 27.4208C150.621 27.3957 150.56 27.3574 150.508 27.3081C150.457 27.2588 150.416 27.1996 150.388 27.134C150.36 27.0684 150.345 26.9978 150.345 26.9265C150.345 26.8552 150.36 26.7846 150.388 26.7191C150.416 26.6535 150.457 26.5943 150.508 26.545C150.56 26.4957 150.621 26.4573 150.688 26.4322C150.754 26.4072 150.826 26.3959 150.897 26.399H154.066C154.202 26.4051 154.33 26.4633 154.424 26.5615C154.518 26.6598 154.571 26.7905 154.571 26.9265C154.571 27.0625 154.518 27.1932 154.424 27.2915C154.33 27.3898 154.202 27.448 154.066 27.454H154.064ZM147.752 27.454H144.612C144.541 27.4572 144.47 27.4459 144.403 27.4208C144.336 27.3957 144.275 27.3574 144.224 27.3081C144.172 27.2588 144.131 27.1996 144.103 27.134C144.075 27.0684 144.06 26.9978 144.06 26.9265C144.06 26.8552 144.075 26.7846 144.103 26.7191C144.131 26.6535 144.172 26.5943 144.224 26.545C144.275 26.4957 144.336 26.4573 144.403 26.4322C144.47 26.4072 144.541 26.3959 144.612 26.399H147.754C147.825 26.3959 147.896 26.4072 147.963 26.4322C148.03 26.4573 148.091 26.4957 148.143 26.545C148.194 26.5943 148.235 26.6535 148.263 26.7191C148.291 26.7846 148.306 26.8552 148.306 26.9265C148.306 26.9978 148.291 27.0684 148.263 27.134C148.235 27.1996 148.194 27.2588 148.143 27.3081C148.091 27.3574 148.03 27.3957 147.963 27.4208C147.896 27.4459 147.825 27.4572 147.754 27.454H147.752ZM141.441 27.454H138.301C138.23 27.4572 138.159 27.4459 138.092 27.4208C138.025 27.3957 137.964 27.3574 137.913 27.3081C137.861 27.2588 137.82 27.1996 137.792 27.134C137.764 27.0684 137.75 26.9978 137.75 26.9265C137.75 26.8552 137.764 26.7846 137.792 26.7191C137.82 26.6535 137.861 26.5943 137.913 26.545C137.964 26.4957 138.025 26.4573 138.092 26.4322C138.159 26.4072 138.23 26.3959 138.301 26.399H141.443C141.579 26.4051 141.708 26.4633 141.802 26.5615C141.896 26.6598 141.948 26.7905 141.948 26.9265C141.948 27.0625 141.896 27.1932 141.802 27.2915C141.708 27.3898 141.579 27.448 141.443 27.454H141.441ZM135.155 27.454H132.017C131.945 27.4572 131.874 27.4459 131.807 27.4208C131.741 27.3957 131.68 27.3574 131.628 27.3081C131.577 27.2588 131.536 27.1996 131.507 27.134C131.479 27.0684 131.465 26.9978 131.465 26.9265C131.465 26.8552 131.479 26.7846 131.507 26.7191C131.536 26.6535 131.577 26.5943 131.628 26.545C131.68 26.4957 131.741 26.4573 131.807 26.4322C131.874 26.4072 131.945 26.3959 132.017 26.399H135.16C135.298 26.4037 135.43 26.4608 135.528 26.5588C135.626 26.6569 135.683 26.7885 135.688 26.927C135.687 27.0668 135.632 27.2007 135.533 27.2994C135.434 27.3982 135.299 27.4537 135.16 27.454H135.155ZM128.845 27.454H125.706C125.635 27.4572 125.564 27.4459 125.497 27.4208C125.43 27.3957 125.369 27.3574 125.317 27.3081C125.266 27.2588 125.225 27.1996 125.197 27.134C125.169 27.0684 125.154 26.9978 125.154 26.9265C125.154 26.8552 125.169 26.7846 125.197 26.7191C125.225 26.6535 125.266 26.5943 125.317 26.545C125.369 26.4957 125.43 26.4573 125.497 26.4322C125.564 26.4072 125.635 26.3959 125.706 26.399H128.848C128.984 26.4051 129.112 26.4633 129.206 26.5615C129.3 26.6598 129.353 26.7905 129.353 26.9265C129.353 27.0625 129.3 27.1932 129.206 27.2915C129.112 27.3898 128.984 27.448 128.848 27.454H128.845ZM122.533 27.454H119.394C119.258 27.448 119.13 27.3898 119.036 27.2915C118.942 27.1932 118.889 27.0625 118.889 26.9265C118.889 26.7905 118.942 26.6598 119.036 26.5615C119.13 26.4633 119.258 26.4051 119.394 26.399H122.536C122.672 26.4051 122.8 26.4633 122.894 26.5615C122.988 26.6598 123.041 26.7905 123.041 26.9265C123.041 27.0625 122.988 27.1932 122.894 27.2915C122.8 27.3898 122.672 27.448 122.536 27.454H122.533ZM116.222 27.454H113.082C113.011 27.4572 112.94 27.4459 112.873 27.4208C112.806 27.3957 112.745 27.3574 112.694 27.3081C112.642 27.2588 112.601 27.1996 112.573 27.134C112.545 27.0684 112.531 26.9978 112.531 26.9265C112.531 26.8552 112.545 26.7846 112.573 26.7191C112.601 26.6535 112.642 26.5943 112.694 26.545C112.745 26.4957 112.806 26.4573 112.873 26.4322C112.94 26.4072 113.011 26.3959 113.082 26.399H116.225C116.361 26.4051 116.49 26.4633 116.584 26.5615C116.678 26.6598 116.73 26.7905 116.73 26.9265C116.73 27.0625 116.678 27.1932 116.584 27.2915C116.49 27.3898 116.361 27.448 116.225 27.454H116.222ZM109.938 27.454H106.799C106.728 27.4572 106.656 27.4459 106.59 27.4208C106.523 27.3957 106.462 27.3574 106.41 27.3081C106.359 27.2588 106.318 27.1996 106.29 27.134C106.262 27.0684 106.247 26.9978 106.247 26.9265C106.247 26.8552 106.262 26.7846 106.29 26.7191C106.318 26.6535 106.359 26.5943 106.41 26.545C106.462 26.4957 106.523 26.4573 106.59 26.4322C106.656 26.4072 106.728 26.3959 106.799 26.399H109.941C110.078 26.4078 110.207 26.4663 110.304 26.5635C110.402 26.6606 110.46 26.7899 110.469 26.927C110.469 27.0669 110.413 27.2009 110.314 27.2997C110.215 27.3985 110.081 27.454 109.941 27.454H109.938ZM103.627 27.454H100.461C100.39 27.4572 100.319 27.4459 100.252 27.4208C100.185 27.3957 100.124 27.3574 100.072 27.3081C100.021 27.2588 99.9798 27.1996 99.9518 27.134C99.9238 27.0684 99.9093 26.9978 99.9093 26.9265C99.9093 26.8552 99.9238 26.7846 99.9518 26.7191C99.9798 26.6535 100.021 26.5943 100.072 26.545C100.124 26.4957 100.185 26.4573 100.252 26.4322C100.319 26.4072 100.39 26.3959 100.461 26.399H103.63C103.701 26.3959 103.772 26.4072 103.839 26.4322C103.906 26.4573 103.967 26.4957 104.019 26.545C104.07 26.5943 104.111 26.6535 104.139 26.7191C104.167 26.7846 104.182 26.8552 104.182 26.9265C104.182 26.9978 104.167 27.0684 104.139 27.134C104.111 27.1996 104.07 27.2588 104.019 27.3081C103.967 27.3574 103.906 27.3957 103.839 27.4208C103.772 27.4459 103.701 27.4572 103.63 27.454H103.627ZM97.3151 27.454H94.1763C94.105 27.4572 94.0339 27.4459 93.9671 27.4208C93.9003 27.3957 93.8393 27.3574 93.7877 27.3081C93.7361 27.2588 93.6951 27.1996 93.6671 27.134C93.639 27.0684 93.6246 26.9978 93.6246 26.9265C93.6246 26.8552 93.639 26.7846 93.6671 26.7191C93.6951 26.6535 93.7361 26.5943 93.7877 26.545C93.8393 26.4957 93.9003 26.4573 93.9671 26.4322C94.0339 26.4072 94.105 26.3959 94.1763 26.399H97.3182C97.4541 26.4051 97.5825 26.4633 97.6765 26.5615C97.7706 26.6598 97.8231 26.7905 97.8231 26.9265C97.8231 27.0625 97.7706 27.1932 97.6765 27.2915C97.5825 27.3898 97.4541 27.448 97.3182 27.454H97.3151Z" fill="#EAEAFF"/>
<path d="M203.181 38.8553V39.3043H77.7517V38.8553H203.181Z" fill="white"/>
<path d="M89.7668 95.8076C89.0533 95.8049 88.3698 95.5204 87.8652 95.0161C87.3607 94.5118 87.076 93.8287 87.0732 93.1156V53.5557C87.076 52.8425 87.3607 52.1594 87.8652 51.6551C88.3698 51.1508 89.0533 50.8663 89.7668 50.8636H91.1927C91.9062 50.8663 92.5898 51.1508 93.0943 51.6551C93.5989 52.1594 93.8835 52.8425 93.8863 53.5557V93.0896C93.8888 93.8067 93.6066 94.4956 93.1017 95.0051C92.5967 95.5146 91.9102 95.8032 91.1927 95.8076H89.7668Z" fill="#EAEAFF"/>
<path d="M102.257 95.8076C101.67 95.8041 101.108 95.5694 100.692 95.1543C100.277 94.7393 100.042 94.1775 100.039 93.5906V67.754C100.042 67.1671 100.277 66.6052 100.692 66.1902C101.108 65.7752 101.67 65.5405 102.257 65.5369H104.634C105.221 65.5405 105.783 65.7752 106.198 66.1902C106.613 66.6052 106.848 67.1671 106.852 67.754V93.5906C106.844 94.1761 106.608 94.7355 106.193 95.1496C105.779 95.5637 105.219 95.7998 104.634 95.8076H102.257Z" fill="#EAEAFF"/>
<path d="M115.671 95.8076C114.958 95.8049 114.274 95.5204 113.77 95.0161C113.265 94.5118 112.98 93.8287 112.978 93.1156V53.5557C112.98 52.8425 113.265 52.1594 113.77 51.6551C114.274 51.1508 114.958 50.8663 115.671 50.8636H117.097C117.811 50.8663 118.494 51.1508 118.999 51.6551C119.503 52.1594 119.788 52.8425 119.791 53.5557V93.0896C119.793 93.8067 119.511 94.4956 119.006 95.0051C118.501 95.5146 117.815 95.8032 117.097 95.8076H115.671Z" fill="#EAEAFF"/>
<path d="M129.164 95.8107C128.547 95.8096 127.956 95.5641 127.521 95.1279C127.085 94.6918 126.841 94.1008 126.841 93.4845V64.5599C126.842 63.9444 127.087 63.3544 127.522 62.9192C127.958 62.4839 128.548 62.2389 129.164 62.2378H131.303C131.919 62.2389 132.509 62.4839 132.945 62.9192C133.38 63.3544 133.625 63.9444 133.627 64.5599V93.4845C133.629 93.7903 133.57 94.0935 133.455 94.3765C133.339 94.6596 133.168 94.9167 132.952 95.1332C132.735 95.3496 132.478 95.5209 132.195 95.6372C131.912 95.7536 131.609 95.8125 131.303 95.8107H129.164Z" fill="#EAEAFF"/>
<path d="M141.708 95.8076C141.198 95.8049 140.709 95.6011 140.348 95.2406C139.987 94.88 139.783 94.3917 139.78 93.8816V75.0912C139.783 74.5809 139.987 74.0923 140.348 73.7315C140.709 73.3707 141.198 73.1668 141.708 73.1641H144.692C145.203 73.1671 145.691 73.3711 146.052 73.7319C146.413 74.0927 146.617 74.5811 146.619 75.0912V93.8816C146.612 94.3904 146.407 94.8764 146.047 95.2362C145.687 95.5961 145.2 95.8014 144.691 95.8087L141.708 95.8076Z" fill="#EAEAFF"/>
<path d="M155.068 95.8107C154.452 95.8096 153.861 95.5641 153.425 95.1279C152.99 94.6918 152.745 94.1008 152.745 93.4845V64.5599C152.746 63.9444 152.991 63.3544 153.427 62.9192C153.862 62.4839 154.452 62.2389 155.068 62.2378H157.208C157.823 62.2389 158.414 62.4839 158.849 62.9192C159.285 63.3544 159.53 63.9444 159.531 64.5599V93.4845C159.533 93.7903 159.475 94.0935 159.359 94.3765C159.243 94.6596 159.072 94.9167 158.856 95.1332C158.64 95.3496 158.383 95.5209 158.1 95.6372C157.817 95.7536 157.513 95.8125 157.208 95.8107H155.068Z" fill="#EAEAFF"/>
<path d="M89.1592 26.399C86.167 26.3732 83.2864 27.5335 81.1483 29.6258C79.0102 31.7181 77.7888 34.5718 77.7515 37.5623V39.0663H203.181V37.5623C203.143 34.572 201.922 31.7184 199.784 29.6261C197.646 27.5339 194.766 26.3735 191.774 26.399H89.1592Z" fill="#EAEAFF"/>
<path d="M175.56 34.3962C175.111 34.4029 174.679 34.2315 174.357 33.9196C174.035 33.6078 173.851 33.1811 173.844 32.7332C173.851 32.2853 174.035 31.8585 174.357 31.5467C174.679 31.2349 175.111 31.0635 175.56 31.0701C176.008 31.0635 176.44 31.2349 176.762 31.5467C177.084 31.8585 177.268 32.2853 177.276 32.7332C177.268 33.1811 177.084 33.6078 176.762 33.9196C176.44 34.2315 176.008 34.4029 175.56 34.3962Z" fill="#FF8870"/>
<path d="M183.297 34.3962C182.849 34.4029 182.416 34.2315 182.095 33.9196C181.773 33.6078 181.588 33.1811 181.581 32.7332C181.588 32.2853 181.773 31.8585 182.095 31.5467C182.416 31.2349 182.849 31.0635 183.297 31.0701C183.745 31.0635 184.178 31.2349 184.499 31.5467C184.821 31.8585 185.006 32.2853 185.013 32.7332C185.006 33.1811 184.821 33.6078 184.499 33.9196C184.178 34.2315 183.745 34.4029 183.297 34.3962Z" fill="#FFD301"/>
<path d="M191.034 34.3962C190.585 34.4029 190.153 34.2315 189.831 33.9196C189.509 33.6078 189.325 33.1811 189.318 32.7332C189.325 32.2853 189.509 31.8585 189.831 31.5467C190.153 31.2349 190.585 31.0635 191.034 31.0701C191.482 31.0635 191.914 31.2349 192.236 31.5467C192.558 31.8585 192.743 32.2853 192.75 32.7332C192.743 33.1811 192.558 33.6078 192.236 33.9196C191.914 34.2315 191.482 34.4029 191.034 34.3962Z" fill="#54CDA2"/>
<path d="M198.798 123.782C197.02 123.78 195.316 123.073 194.058 121.816C192.801 120.56 192.094 118.856 192.091 117.079V76.9112C192.094 75.1341 192.801 73.4306 194.058 72.1741C195.316 70.9175 197.02 70.2105 198.798 70.208H252.192C253.97 70.2105 255.674 70.9175 256.932 72.1741C258.189 73.4306 258.896 75.1341 258.899 76.9112V117.079C258.896 118.856 258.189 120.56 256.932 121.816C255.674 123.073 253.97 123.78 252.192 123.782H198.798Z" fill="#EAEAFF"/>
<path d="M258.899 83.6944V84.1694H192.091V83.6944H258.899Z" fill="white"/>
<path d="M232.884 79.1812C232.493 79.1812 232.111 79.0654 231.786 78.8484C231.461 78.6314 231.208 78.323 231.059 77.9621C230.909 77.6013 230.87 77.2042 230.946 76.8211C231.022 76.438 231.211 76.0861 231.487 75.8099C231.763 75.5337 232.115 75.3456 232.499 75.2694C232.882 75.1932 233.279 75.2323 233.64 75.3818C234.001 75.5313 234.31 75.7844 234.527 76.1092C234.744 76.4339 234.86 76.8158 234.86 77.2064C234.86 77.7301 234.652 78.2325 234.281 78.6028C233.911 78.9732 233.408 79.1812 232.884 79.1812Z" fill="#FF8870"/>
<path d="M241.862 79.1812C241.472 79.1812 241.09 79.0654 240.765 78.8484C240.44 78.6314 240.186 78.323 240.037 77.9621C239.887 77.6013 239.848 77.2042 239.924 76.8211C240.001 76.438 240.189 76.0861 240.465 75.8099C240.742 75.5337 241.094 75.3456 241.477 75.2694C241.86 75.1932 242.258 75.2323 242.619 75.3818C242.98 75.5313 243.288 75.7844 243.505 76.1092C243.723 76.4339 243.838 76.8158 243.838 77.2064C243.838 77.7301 243.63 78.2325 243.26 78.6028C242.889 78.9732 242.387 79.1812 241.862 79.1812Z" fill="#FFD301"/>
<path d="M250.841 79.1812C250.45 79.1812 250.068 79.0654 249.743 78.8484C249.418 78.6314 249.165 78.323 249.015 77.9621C248.866 77.6013 248.827 77.2042 248.903 76.8211C248.979 76.438 249.167 76.0861 249.444 75.8099C249.72 75.5337 250.072 75.3456 250.455 75.2694C250.839 75.1932 251.236 75.2323 251.597 75.3818C251.958 75.5313 252.267 75.7844 252.484 76.1092C252.701 76.4339 252.817 76.8158 252.817 77.2064C252.817 77.7301 252.609 78.2325 252.238 78.6028C251.868 78.9732 251.365 79.1812 250.841 79.1812Z" fill="#54CDA2"/>
<path d="M229.351 102.67C229.195 102.669 229.041 102.626 228.906 102.546C228.772 102.466 228.661 102.352 228.586 102.214C228.51 102.077 228.473 101.922 228.477 101.765C228.482 101.609 228.529 101.456 228.612 101.324L234.024 92.8526C234.057 92.8046 234.08 92.7504 234.091 92.6933C234.102 92.6362 234.102 92.5774 234.09 92.5205C234.077 92.4636 234.053 92.4099 234.019 92.3626C233.985 92.3153 233.942 92.2755 233.892 92.2456C232.155 91.2281 230.192 90.6581 228.18 90.5871C226.168 90.5161 224.17 90.9463 222.366 91.8388C220.562 92.7313 219.008 94.0583 217.844 95.7002C216.68 97.3421 215.943 99.2475 215.699 101.245C215.509 102.868 215.648 104.513 216.108 106.082C216.569 107.65 217.341 109.109 218.379 110.372C219.418 111.635 220.7 112.676 222.15 113.431C223.6 114.187 225.188 114.643 226.819 114.771C228.449 114.898 230.089 114.696 231.639 114.176C233.189 113.656 234.619 112.828 235.841 111.742C237.064 110.657 238.055 109.336 238.755 107.859C239.454 106.381 239.849 104.778 239.914 103.145C239.91 103.02 239.858 102.902 239.77 102.813C239.682 102.725 239.563 102.674 239.438 102.67H229.351Z" fill="white"/>
<path d="M76.9333 182.979C87.0202 165.296 97.9798 153.816 104.713 148.749C109.042 145.555 113.625 142.722 118.418 140.278L112.582 191.952L96.3158 243.362L63.4663 243.573C63.4663 243.573 66.8463 200.661 76.9333 182.979Z" fill="#F9D2DD"/>
<path d="M108.647 204.355L112.579 191.952L116.33 158.883L111.816 143.999C111.715 144.054 111.618 144.116 111.526 144.184C111.579 148.565 111.076 163.212 103.076 175.695C96.0504 186.647 81.3957 188.627 74.1865 188.89C73.9785 189.365 73.7642 189.866 73.5791 190.345L108.647 204.355Z" fill="#F9ACC0"/>
<path d="M98.8511 196.728C98.8511 196.728 106.984 191.947 111.474 170.917C114.061 158.777 111.474 143.708 111.474 143.708C111.474 143.708 128.584 133.601 146.276 134.445C156.728 134.909 167.089 136.602 177.145 139.488C177.145 139.488 176.01 148.171 176.01 166.143C176.01 184.116 183.878 203.458 183.878 203.458L182.611 243.573H93.1997L98.8511 196.728Z" fill="#6A6DB0"/>
<path d="M138.539 185.802L134.762 223.674L182.928 210.926L156.096 206.835L138.539 185.802Z" fill="#224BF4"/>
<path d="M118.761 140.331V241.33H118.207V140.331H118.761Z" fill="white"/>
<path d="M130.96 136.108V241.329H130.406V136.108H130.96Z" fill="white"/>
<path d="M143.186 140.331V241.33H142.632V140.331H143.186Z" fill="white"/>
<path d="M155.387 140.331V241.33H154.832V140.331H155.387Z" fill="white"/>
<path d="M167.586 137.243V241.33H167.031V137.243H167.586Z" fill="white"/>
<path d="M176.089 32.7592C175.339 33.4233 174.757 34.2553 174.389 35.1872C174.022 36.1191 173.881 37.1245 173.977 38.1215C172.165 37.4922 170.225 37.3215 168.331 37.6245C166.437 37.9276 164.648 38.6951 163.123 39.8583C159.11 42.8934 159.587 47.5905 160.086 49.8075C154.752 49.3855 149.128 51.3667 146.989 55.6137C145.719 58.4004 145.131 61.4491 145.273 64.5079C131.595 63.5049 120.105 72.1351 118.391 84.5685C116.677 97.0019 123.039 104.124 123.039 104.124L148.943 111.751C148.943 111.751 160.191 112.516 166.054 107.185C171.916 101.854 175.587 89.3976 171.177 79.2363C169.8 76.3367 167.777 73.7909 165.263 71.7942C166.89 70.1673 168.383 68.4108 169.725 66.542C170.659 65.1549 171.257 63.5696 171.473 61.9116C171.688 60.2536 171.514 58.5683 170.966 56.9888C172.853 56.701 174.67 56.0667 176.326 55.1179C180.128 53.0599 181.11 48.7577 180.181 45.0356C181.43 45.0715 182.679 44.9669 183.905 44.7238C187.575 43.9318 189.054 39.3667 186.598 34.8006C184.143 30.2344 179.02 30.4631 176.089 32.7592Z" fill="#1F1F39"/>
<path d="M120.451 97.4447C115.962 99.3977 116.252 108.107 122.695 110.904C129.138 113.701 132.809 111.458 132.809 111.458L127.739 97.4447C127.739 97.4447 124.94 95.4916 120.451 97.4447Z" fill="#F9ACC0"/>
<path d="M128.081 110.455L125.916 105.969C123.831 101.641 121.005 100.215 120.978 100.215C120.916 100.186 120.867 100.134 120.842 100.07C120.817 100.006 120.819 99.9348 120.846 99.8717C120.875 99.8088 120.927 99.7597 120.991 99.735C121.056 99.7103 121.127 99.712 121.19 99.7397C121.323 99.7927 124.227 101.218 126.39 105.757L128.556 110.243C128.583 110.306 128.585 110.377 128.56 110.441C128.535 110.506 128.486 110.558 128.424 110.586C128.398 110.586 128.345 110.612 128.32 110.612C128.269 110.613 128.219 110.598 128.176 110.57C128.134 110.542 128.101 110.502 128.081 110.455Z" fill="#1F1F39"/>
<path d="M123.565 95.0686C123.697 97.8397 124.357 107.842 127.473 113.12C129.421 116.516 132.398 119.206 135.976 120.8C136.117 120.856 136.236 120.955 136.317 121.083C136.398 121.212 136.436 121.362 136.425 121.513C136.346 123.488 136.029 130.459 135.317 133.311C134.683 135.871 134.049 137.929 133.757 138.774C133.714 138.906 133.709 139.047 133.742 139.182C133.774 139.317 133.844 139.44 133.942 139.539C135.077 140.674 139.434 142.838 146.537 142.838C153.561 142.838 157.364 141.096 158.71 140.304C158.844 140.223 158.95 140.105 159.015 139.964C159.081 139.823 159.104 139.665 159.08 139.512C158.683 137.454 157.208 129.588 157.208 125.709C157.208 122.014 157.577 116.815 157.709 115.074C157.721 114.909 157.787 114.753 157.897 114.629C158.006 114.505 158.154 114.42 158.316 114.388C160.614 113.966 169.196 111.881 168.694 104.098C168.219 96.2858 161.142 96.9728 159.32 97.2888C159.187 97.3124 159.063 97.3714 158.96 97.4595C158.858 97.5477 158.781 97.6618 158.738 97.7898C158.426 98.6868 157.63 100.957 157.207 102.725C157.168 102.895 157.071 103.046 156.931 103.152C156.792 103.257 156.62 103.31 156.445 103.3C156.271 103.291 156.105 103.22 155.978 103.1C155.851 102.98 155.77 102.819 155.751 102.646C155.619 101.746 155.549 100.838 155.543 99.9278C155.515 99.0389 155.613 98.1506 155.833 97.2888C155.857 97.1935 155.861 97.0943 155.846 96.9972C155.831 96.9001 155.797 96.807 155.745 96.7234C155.693 96.6398 155.625 96.5674 155.545 96.5104C155.465 96.4535 155.374 96.4131 155.278 96.3918C153.271 95.9168 148.122 94.2807 145.456 89.8206C144.302 87.9723 143.346 86.0073 142.605 83.9584C142.558 83.8181 142.47 83.6951 142.352 83.6053C142.235 83.5154 142.093 83.4629 141.945 83.4544C141.798 83.4459 141.651 83.4818 141.523 83.5576C141.396 83.6333 141.295 83.7454 141.232 83.8794C139.71 86.9189 137.259 89.3947 134.234 90.9473C131.14 92.6875 127.744 93.8263 124.226 94.3036C124.038 94.3206 123.864 94.4098 123.741 94.5525C123.617 94.6952 123.554 94.8803 123.565 95.0686Z" fill="#F9D2DD"/>
<path d="M201.043 163.343C207.491 177.648 210.337 207.786 209.731 218.606C209.15 228.715 205.506 240.195 193.438 242.728C181.397 245.261 137.879 242.725 137.879 242.725V213.855L180.261 211.058L176.907 191.714C176.907 191.714 172.709 172.632 174.109 158.065C175.482 143.444 176.617 139.512 176.617 139.512C176.617 139.512 192.117 143.55 201.043 163.343Z" fill="#F9D2DD"/>
<path d="M144.243 94.6206C144.734 94.3808 145.282 94.2804 145.827 94.3306C146.098 94.3545 146.365 94.4168 146.618 94.5156C146.882 94.5945 147.125 94.7296 147.332 94.9117C147.547 95.0725 147.718 95.2848 147.83 95.5291C147.941 95.7734 147.99 96.0418 147.97 96.3097C147.907 96.082 147.8 95.8691 147.654 95.6834C147.508 95.4976 147.327 95.3427 147.121 95.2276C146.708 95.0221 146.26 94.8969 145.801 94.8586C145.337 94.8181 144.87 94.8719 144.428 95.0166C143.968 95.1747 143.545 95.4263 143.186 95.7557C143.397 95.2671 143.771 94.8662 144.243 94.6206Z" fill="#1F1F39"/>
<path d="M129.165 94.7526C129.575 94.3851 130.094 94.1626 130.643 94.1196C130.918 94.0934 131.196 94.1203 131.461 94.1986C131.73 94.2971 131.98 94.4397 132.201 94.6206C132.395 94.8037 132.549 95.0247 132.653 95.2699C132.758 95.5151 132.81 95.7792 132.808 96.0456C132.623 95.6055 132.322 95.2237 131.938 94.9408C131.754 94.8142 131.548 94.7236 131.33 94.6736C131.226 94.6736 131.122 94.6206 131.018 94.6206H130.706C130.247 94.6518 129.806 94.807 129.428 95.0696C129.006 95.3293 128.631 95.6594 128.32 96.0456C128.476 95.5448 128.769 95.0973 129.165 94.7526Z" fill="#1F1F39"/>
<path d="M137.351 99.3177C137.219 99.6867 137.087 100.031 136.982 100.4C136.877 100.769 136.774 101.113 136.691 101.482C136.602 101.817 136.575 102.166 136.612 102.511C136.635 102.666 136.699 102.811 136.798 102.933C136.835 103.006 136.89 103.069 136.956 103.118L137.035 103.197L137.139 103.276C137.428 103.489 137.762 103.634 138.115 103.698C138.489 103.778 138.869 103.831 139.251 103.856C138.873 103.957 138.48 103.992 138.089 103.96C137.681 103.935 137.284 103.818 136.928 103.617C136.737 103.506 136.57 103.358 136.438 103.181C136.307 103.004 136.213 102.802 136.162 102.588C136.1 102.175 136.118 101.755 136.215 101.35C136.383 100.579 136.65 99.8321 137.008 99.1285C137.32 98.4345 137.701 97.773 138.143 97.1537L137.351 99.3177Z" fill="#1F1F39"/>
<path d="M131.119 102.828C130.56 102.783 130.042 102.519 129.676 102.094C129.31 101.67 129.127 101.118 129.165 100.559C129.126 99.9995 129.31 99.4475 129.675 99.0225C130.041 98.5975 130.56 98.3339 131.119 98.2887C131.678 98.3339 132.197 98.5975 132.563 99.0225C132.929 99.4475 133.112 99.9995 133.073 100.559C133.112 101.118 132.928 101.67 132.562 102.094C132.197 102.519 131.678 102.783 131.119 102.828Z" fill="#1F1F39"/>
<path d="M145.141 102.828C144.582 102.783 144.063 102.519 143.697 102.094C143.332 101.67 143.148 101.118 143.186 100.559C143.148 99.9995 143.331 99.4475 143.697 99.0225C144.063 98.5975 144.582 98.3339 145.141 98.2887C145.7 98.3339 146.219 98.5975 146.584 99.0225C146.95 99.4475 147.134 99.9995 147.095 100.559C147.133 101.118 146.95 101.67 146.584 102.094C146.218 102.519 145.7 102.783 145.141 102.828Z" fill="#1F1F39"/>
<path d="M148.15 213.037V242.728C148.15 242.728 157.551 243.282 168.827 243.599L158.687 212.351L148.15 213.037Z" fill="#F9ACC0"/>
<path d="M141.787 111.22C141.228 111.175 140.709 110.911 140.343 110.487C139.978 110.062 139.794 109.51 139.832 108.951C139.794 108.392 139.977 107.84 140.343 107.415C140.709 106.99 141.228 106.726 141.787 106.681C142.346 106.726 142.865 106.99 143.23 107.415C143.596 107.84 143.78 108.392 143.741 108.951C143.779 109.51 143.596 110.062 143.23 110.487C142.864 110.911 142.346 111.175 141.787 111.22Z" fill="#F95368"/>
<path d="M62.9119 243.308C61.7878 243.229 60.7093 242.832 59.8022 242.164C58.8952 241.496 58.1969 240.584 57.7889 239.534L47.0945 180.92C46.3281 178.861 47.4107 177.146 49.4969 177.146H143.873C144.997 177.224 146.075 177.621 146.982 178.289C147.89 178.958 148.588 179.87 148.996 180.92L159.688 239.534C160.454 241.619 159.376 243.308 157.285 243.308H62.9119Z" fill="#EAEAFF"/>
<path d="M102.2 214.532C100.966 214.532 99.7594 214.166 98.7332 213.481C97.707 212.796 96.9072 211.822 96.435 210.682C95.9627 209.543 95.8391 208.289 96.0799 207.079C96.3206 205.869 96.9149 204.758 97.7876 203.886C98.6603 203.014 99.7722 202.42 100.983 202.179C102.193 201.938 103.448 202.062 104.588 202.534C105.728 203.006 106.703 203.805 107.388 204.831C108.074 205.856 108.44 207.062 108.44 208.296C108.44 209.95 107.783 211.536 106.612 212.705C105.442 213.875 103.855 214.532 102.2 214.532Z" fill="white"/>
<g opacity="0.635">
<path opacity="0.635" d="M150.025 110.983C146.788 110.983 144.163 109.376 144.163 107.394C144.163 105.412 146.788 103.805 150.025 103.805C153.263 103.805 155.888 105.412 155.888 107.394C155.888 109.376 153.263 110.983 150.025 110.983Z" fill="#F9ACC0"/>
<path opacity="0.635" d="M129.244 110.984C126.007 110.984 123.382 109.377 123.382 107.395C123.382 105.413 126.007 103.806 129.244 103.806C132.482 103.806 135.107 105.413 135.107 107.395C135.107 109.377 132.482 110.984 129.244 110.984Z" fill="#F9ACC0"/>
</g>
<path d="M143.133 122.173C140.833 121.969 138.549 121.616 136.294 121.117C136.378 121.252 136.423 121.407 136.427 121.566C136.373 123.228 136.135 128.348 135.634 131.647C138.17 131.119 142.922 129.848 145.695 127.477C147.806 125.746 149.696 123.761 151.319 121.566C148.627 122.111 145.877 122.315 143.133 122.173Z" fill="#F9ACC0"/>
<path d="M136.347 121.249C136.314 121.238 136.284 121.219 136.259 121.194C136.234 121.17 136.215 121.141 136.202 121.108C136.19 121.075 136.185 121.041 136.187 121.006C136.189 120.971 136.199 120.937 136.215 120.906C136.227 120.873 136.246 120.843 136.27 120.818C136.294 120.793 136.324 120.774 136.357 120.761C136.389 120.749 136.424 120.744 136.459 120.746C136.494 120.748 136.528 120.758 136.558 120.774C139.129 121.693 141.862 122.072 144.586 121.886C147.127 121.777 149.649 121.404 152.113 120.774C152.145 120.762 152.18 120.758 152.215 120.761C152.249 120.764 152.283 120.775 152.313 120.793C152.343 120.81 152.368 120.835 152.387 120.863C152.407 120.892 152.42 120.925 152.425 120.959C152.437 120.992 152.441 121.027 152.438 121.061C152.435 121.096 152.424 121.129 152.406 121.159C152.389 121.189 152.364 121.214 152.336 121.234C152.307 121.253 152.274 121.266 152.24 121.271C149.74 121.904 147.184 122.284 144.608 122.406C144.159 122.406 143.737 122.432 143.314 122.432C140.939 122.462 138.579 122.062 136.347 121.249Z" fill="#1F1F39"/>
<path d="M157.868 109.453C157.144 111.333 157.097 113.406 157.736 115.316V115.158C157.748 114.993 157.814 114.837 157.924 114.713C158.033 114.589 158.181 114.504 158.343 114.472C159.174 114.314 159.994 114.102 160.799 113.839C160.245 111.785 160.084 109.646 160.323 107.532C160.604 105.647 161.183 103.818 162.04 102.116C162.04 102.116 159.611 104.043 157.868 109.453Z" fill="#F9ACC0"/>
<path d="M157.235 111.748C157.371 109.643 157.956 107.591 158.951 105.731C159.899 103.724 161.402 102.031 163.281 100.849C163.312 100.831 163.346 100.819 163.382 100.815C163.417 100.81 163.453 100.813 163.488 100.823C163.522 100.832 163.554 100.849 163.582 100.871C163.61 100.894 163.633 100.921 163.65 100.953C163.668 100.984 163.68 101.018 163.684 101.053C163.689 101.089 163.686 101.125 163.676 101.159C163.667 101.194 163.65 101.226 163.628 101.254C163.606 101.282 163.578 101.305 163.546 101.322C161.781 102.466 160.364 104.073 159.453 105.969C158.5 107.758 157.933 109.727 157.789 111.749C157.774 111.818 157.739 111.88 157.686 111.928C157.634 111.975 157.569 112.005 157.499 112.013C157.464 112.013 157.43 112.006 157.397 111.993C157.365 111.98 157.336 111.96 157.312 111.935C157.287 111.911 157.268 111.881 157.254 111.849C157.241 111.817 157.234 111.783 157.235 111.748Z" fill="#1F1F39"/>
<path d="M184.46 143.339C182.036 141.689 179.386 140.4 176.591 139.512C176.591 139.512 175.455 143.444 174.056 158.013C173.131 167.539 174.61 178.993 175.741 185.776C175.775 178.252 176.528 170.749 177.99 163.369C180.155 152.655 182.744 146.532 184.46 143.339Z" fill="#F9ACC0"/>
<path d="M192.593 209.924L178.834 202.64L180.207 210.821L192.593 209.924Z" fill="#F9ACC0"/>
<path d="M179.993 210.953C179.967 210.821 180.097 210.689 180.231 210.663L192.751 209.472C192.821 209.466 192.891 209.487 192.945 209.531C192.999 209.576 193.034 209.64 193.041 209.71C193.067 209.842 192.937 209.974 192.803 210L180.26 211.191C180.195 211.189 180.133 211.164 180.084 211.12C180.035 211.077 180.003 211.018 179.993 210.953Z" fill="#1F1F39"/>
<path d="M35.8866 244.354C35.7493 244.354 35.6401 244.123 35.6401 243.834C35.6401 243.545 35.7493 243.314 35.8866 243.314H232.994C233.13 243.314 233.24 243.545 233.24 243.834C233.24 244.123 233.131 244.354 232.994 244.354H35.8866Z" fill="#1F1F39"/>
</svg>
