<svg width="271" height="271" viewBox="0 0 271 271" fill="none" xmlns="http://www.w3.org/2000/svg">
<path d="M208.28 0.413788C224.83 0.413788 240.701 6.98432 252.403 18.6799C264.106 30.3756 270.68 46.2382 270.68 62.7783V208.296C270.68 224.836 264.106 240.698 252.403 252.394C240.701 264.09 224.83 270.66 208.28 270.66H62.68C46.1305 270.66 30.2588 264.09 18.5566 252.394C6.8543 240.698 0.280029 224.836 0.280029 208.296L0.280029 62.7783C0.280029 46.2382 6.8543 30.3756 18.5566 18.6799C30.2588 6.98432 46.1305 0.413788 62.68 0.413788L208.28 0.413788Z" fill="#CDECFE"/>
<path d="M31.5715 30.5785C31.8097 29.6025 31.9938 29.0214 31.9938 28.9955L32.9974 29.3385C32.9974 29.3644 32.8123 29.8925 32.6011 30.8165L31.5715 30.5785Z" fill="#87C0F4"/>
<path d="M17.5222 230.625L17.4962 229.57C18.5239 229.528 19.5474 229.414 20.559 229.228L20.7441 230.257C19.6827 230.477 18.6037 230.6 17.5201 230.626L17.5222 230.625ZM14.2743 230.417C13.185 230.218 12.1328 229.853 11.1543 229.335L11.6556 228.412C12.5462 228.87 13.4977 229.199 14.4812 229.389L14.2732 230.417H14.2743ZM23.939 229.494H23.835L23.5438 228.491L23.6239 228.464C24.5152 228.184 25.421 227.864 26.4756 227.461L26.8718 228.438C26.0876 228.75 25.0466 229.153 23.9411 229.494H23.939ZM8.51892 227.299C7.76879 226.492 7.14535 225.575 6.6698 224.581L7.62036 224.107C8.06025 225.01 8.62958 225.844 9.31036 226.583L8.51892 227.295V227.299ZM29.7495 227.035L29.2482 226.113C30.1416 225.608 31.0055 225.053 31.8357 224.45L32.4691 225.295C31.5992 225.931 30.6909 226.512 29.7495 227.036V227.035ZM34.9256 223.235L34.1872 222.47C34.9526 221.733 35.6525 220.999 36.3264 220.227L37.1179 220.914C36.4282 221.725 35.6972 222.5 34.9276 223.236L34.9256 223.235ZM39.124 218.431L38.2806 217.798C38.7798 217.116 39.436 216.211 40.0756 215.238L40.9472 215.819C40.372 216.693 39.7532 217.613 39.1251 218.431H39.124ZM42.6892 213.153L41.7927 212.599C42.2763 211.825 42.7963 210.97 43.4296 209.908L44.3272 210.436C43.7832 211.371 43.2632 212.238 42.6902 213.154L42.6892 213.153ZM45.9132 207.716L44.9896 207.189C45.337 206.586 45.6781 205.969 46.039 205.318C46.1978 205.03 46.359 204.739 46.5226 204.446L47.4461 204.947C46.896 205.964 46.4061 206.874 45.9152 207.717L45.9132 207.716ZM48.976 202.2L48.0535 201.699C48.5277 200.803 49.0342 199.871 49.5584 198.927L50.4819 199.428C49.9681 200.353 49.4616 201.285 48.977 202.199L48.976 202.2ZM51.9597 196.657L51.0372 196.156C51.2536 195.748 51.4744 195.335 51.6997 194.916C51.9514 194.446 52.2374 193.914 52.5161 193.385L53.4396 193.886C53.189 194.347 52.9415 194.816 52.7012 195.27C52.461 195.723 52.2135 196.192 51.9608 196.656L51.9597 196.657ZM54.9695 191.142L54.073 190.562C54.6635 189.65 55.3353 188.794 56.0802 188.003L56.8456 188.715C56.158 189.473 55.532 190.285 54.9736 191.143L54.9695 191.142ZM59.0889 186.576L58.4036 185.785L58.597 185.619C59.2948 185.021 60.0156 184.403 60.859 183.748L61.5184 184.566C60.5824 185.293 59.8159 185.926 59.0889 186.571V186.576ZM64.0008 182.697L63.3675 181.853C63.6857 181.626 64.0175 181.384 64.37 181.125H64.3763C64.836 180.791 65.358 180.412 65.928 180.008L66.5353 180.879C65.5702 181.564 64.7132 182.172 64.0019 182.699L64.0008 182.697ZM69.1239 179.059L68.5165 178.189C68.9419 177.883 69.3766 177.576 69.7978 177.278C70.219 176.979 70.6568 176.669 71.078 176.367L71.6844 177.238C71.2517 177.55 70.8097 177.862 70.3812 178.165L70.3677 178.176C69.958 178.466 69.5357 178.765 69.1197 179.059H69.1239ZM74.2698 175.361L73.6364 174.518C74.4112 173.948 75.1236 173.402 75.8121 172.873L76.1449 172.617L76.8053 173.462C75.9733 174.085 75.1496 174.689 74.2708 175.361H74.2698ZM79.2618 171.429L78.5764 170.611C79.3107 169.995 80.0158 169.363 80.697 168.757L80.9268 168.55L81.6392 169.315C80.8457 170.08 80.046 170.79 79.2639 171.426L79.2618 171.429ZM83.9366 167.127L83.1722 166.389C83.9917 165.541 84.6823 164.79 85.2844 164.093L86.0759 164.779C85.3416 165.631 84.6428 166.398 83.9376 167.127H83.9366ZM88.056 162.271L87.2116 161.664C87.7846 160.867 88.3691 159.974 88.9016 159.077L89.7991 159.605C89.2682 160.525 88.6867 161.414 88.0571 162.269L88.056 162.271ZM212.138 157.441H211.425V156.385H211.812C212.654 156.385 213.63 156.385 214.541 156.333L214.594 157.388H214.583C213.794 157.415 212.979 157.442 212.136 157.442L212.138 157.441ZM208.257 157.308C207.277 157.258 206.289 157.162 205.241 157.06L205.086 157.044L205.19 155.989C206.081 156.079 206.971 156.148 207.83 156.216L208.306 156.253L208.254 157.307L208.257 157.308ZM217.79 157.15L217.686 156.096C218.647 156 219.662 155.853 220.775 155.647L220.96 156.676C219.912 156.89 218.854 157.048 217.79 157.15ZM91.3019 156.735L90.3253 156.313C90.7492 155.375 91.1194 154.415 91.434 153.436L92.4376 153.753C92.0517 154.909 91.6794 155.884 91.3029 156.734L91.3019 156.735ZM201.917 156.682C200.866 156.547 199.756 156.352 198.778 156.181L198.961 155.152C200.001 155.334 201.041 155.494 202.05 155.627L201.918 156.681L201.917 156.682ZM224.069 156.023L223.805 154.995C224.845 154.73 225.833 154.379 226.762 154.045L227.131 155.022C226.091 155.414 225.065 155.749 224.069 156.025V156.023ZM195.657 155.627C194.617 155.419 193.577 155.173 192.573 154.942H192.568L192.806 153.913C193.76 154.133 194.839 154.382 195.87 154.572L195.662 155.627H195.657ZM189.477 154.171L189.135 154.082C188.247 153.849 187.328 153.608 186.415 153.327L186.705 152.324L187.044 152.42C187.972 152.683 188.848 152.93 189.741 153.148L189.477 154.176V154.171ZM230.064 153.696L229.589 152.774C230.506 152.301 231.388 151.763 232.229 151.164L232.837 152.035C231.943 152.64 231.018 153.195 230.065 153.699L230.064 153.696ZM183.377 152.429C182.453 152.138 181.401 151.806 180.369 151.453L180.712 150.45C181.71 150.792 182.723 151.112 183.721 151.4L183.378 152.428L183.377 152.429ZM93.28 150.662L92.2504 150.425C92.4396 149.553 92.6237 148.582 92.8317 147.364L93.8884 147.522C93.7168 148.549 93.5233 149.639 93.281 150.661L93.28 150.662ZM177.384 150.455C176.407 150.113 175.388 149.737 174.402 149.375L174.77 148.398C175.826 148.797 176.82 149.162 177.728 149.48L177.385 150.455H177.384ZM235.319 150.007L234.607 149.243C235.363 148.544 236.06 147.785 236.693 146.973L237.512 147.633C236.837 148.473 236.105 149.266 235.321 150.007H235.319ZM171.442 148.24L168.511 147.052L168.908 146.074L168.974 146.1C169.91 146.481 170.879 146.874 171.812 147.262L171.443 148.239L171.442 148.24ZM165.58 145.784C164.591 145.357 163.64 144.934 162.675 144.492L163.124 143.542C163.604 143.75 164.093 143.976 164.565 144.189C165.037 144.402 165.527 144.623 166.002 144.834L165.581 145.783L165.58 145.784ZM239.335 144.989L238.439 144.461C238.953 143.571 239.42 142.655 239.839 141.716L240.816 142.139C240.4 143.046 239.916 143.978 239.338 144.988L239.335 144.989ZM94.2867 144.382L93.2311 144.278V144.272C93.3351 143.211 93.4391 142.112 93.5212 141.138L94.5768 141.242C94.5061 142.09 94.4167 143.026 94.322 144.016L94.2867 144.382ZM159.826 143.168C158.903 142.732 157.99 142.276 156.977 141.77L157.451 140.82C158.362 141.288 159.314 141.738 160.234 142.171L160.272 142.189L159.822 143.165L159.826 143.168ZM154.149 140.344C153.816 140.168 153.485 139.993 153.157 139.817C152.533 139.487 151.951 139.175 151.35 138.866L151.853 137.943C152.841 138.479 153.73 138.962 154.625 139.421L154.15 140.343L154.149 140.344ZM241.925 139.104L240.923 138.792C241.235 137.806 241.5 136.803 241.714 135.81L242.745 136.018C242.512 137.151 242.185 138.262 241.926 139.104H241.925ZM94.8691 138.101L93.8145 137.997C93.9601 136.661 94.0901 135.685 94.2368 134.83L95.2674 135.014C95.1634 135.688 95.0188 136.738 94.8712 138.101H94.8691ZM148.606 137.31C147.625 136.75 146.741 136.244 145.86 135.727L146.389 134.83C147.235 135.343 148.145 135.863 149.025 136.366L149.108 136.414L148.607 137.31H148.606ZM143.141 134.064C142.296 133.544 141.4 132.965 140.474 132.349L141.055 131.478C141.381 131.686 141.713 131.9 142.033 132.108C142.575 132.458 143.133 132.82 143.697 133.168L143.144 134.064H143.141ZM243.247 132.85L242.191 132.746C242.28 131.811 242.323 130.979 242.323 130.213V129.658L243.38 129.632V130.213C243.38 130.986 243.338 131.824 243.248 132.851L243.247 132.85ZM95.9829 131.979L94.9804 131.689C95.2837 130.65 95.6787 129.64 96.1608 128.671L97.1113 129.145C96.6501 130.05 96.2704 130.995 95.9767 131.968L95.9829 131.979ZM137.837 130.581C136.867 129.925 135.945 129.25 135.249 128.734L135.883 127.889C136.702 128.496 137.587 129.113 138.444 129.71L137.838 130.581H137.837ZM132.741 126.807C131.969 126.199 131.189 125.553 130.285 124.775L130.973 123.984C131.676 124.608 132.44 125.231 133.249 125.887L133.375 125.991L132.742 126.809L132.741 126.807ZM98.8086 126.675L98.0172 125.989C98.6384 125.281 99.3281 124.636 100.076 124.063L100.42 123.798L101.053 124.643L100.71 124.907C100.003 125.411 99.364 126.005 98.8096 126.674L98.8086 126.675ZM242.055 126.592C241.902 125.574 241.683 124.567 241.398 123.577L242.401 123.286C242.692 124.321 242.93 125.369 243.114 126.428L242.059 126.586L242.055 126.592ZM103.58 122.764L102.973 121.894C103.888 121.237 104.85 120.59 105.587 120.1L106.169 120.971C105.842 121.198 105.51 121.426 105.189 121.645C104.658 122.009 104.109 122.384 103.581 122.764H103.58ZM127.928 122.606C127.184 121.862 126.404 121.063 125.736 120.258L126.555 119.572C127.188 120.344 127.944 121.118 128.667 121.841L127.929 122.605L127.928 122.606ZM240.312 120.679C239.89 119.74 239.404 118.832 238.856 117.962L239.755 117.407C240.319 118.322 240.822 119.274 241.259 120.257L240.31 120.678L240.312 120.679ZM108.809 119.307L108.256 118.411C109.146 117.862 110.076 117.33 110.976 116.816L111.002 116.801L111.53 117.725C110.577 118.268 109.641 118.819 108.815 119.304L108.809 119.307ZM123.835 117.644C123.557 117.186 123.31 116.71 123.096 116.22C122.865 115.672 122.672 115.137 122.514 114.688L123.518 114.347L123.562 114.465C123.729 114.918 123.903 115.387 124.073 115.824C124.267 116.268 124.487 116.7 124.733 117.118L123.836 117.645L123.835 117.644ZM114.275 116.246L113.8 115.323C114.696 114.863 115.568 114.424 116.626 113.897L117.075 114.848C116.18 115.281 115.239 115.751 114.277 116.246H114.275ZM237.091 115.427C236.448 114.625 235.761 113.859 235.033 113.132L235.772 112.393C236.534 113.149 237.249 113.951 237.912 114.794L237.093 115.427H237.091ZM119.926 113.526L119.504 112.55C120.305 112.189 121.121 111.847 121.909 111.516L121.96 111.494L121.643 111.573C121.445 110.638 121.227 109.543 121.089 108.433L122.144 108.301C122.304 109.371 122.49 110.401 122.699 111.363L122.461 111.415L122.831 112.312L122.761 112.34C121.825 112.721 120.855 113.115 119.926 113.526ZM125.761 111.177L125.392 110.175C126.395 109.796 127.446 109.437 128.374 109.121L128.719 110.123L128.659 110.144C127.691 110.475 126.693 110.817 125.762 111.178L125.761 111.177ZM232.707 111.073C231.961 110.477 231.117 109.865 230.199 109.253L230.78 108.382C231.734 109.027 232.604 109.666 233.368 110.282L232.709 111.073H232.707ZM131.703 109.173L131.391 108.171C132.223 107.909 133.079 107.663 133.907 107.424L134.427 107.273L134.717 108.302C133.58 108.602 132.595 108.885 131.708 109.173H131.703ZM227.557 107.643C226.688 107.183 225.747 106.699 224.759 106.271L225.182 105.321C226.334 105.851 227.24 106.305 228.034 106.747L227.559 107.643H227.557ZM137.749 107.485L137.485 106.456C138.348 106.23 139.26 106.02 140.141 105.817L140.575 105.713L140.813 106.743L140.716 106.765C139.737 106.992 138.723 107.226 137.75 107.481L137.749 107.485ZM143.879 106.114L143.671 105.084C144.746 104.865 145.804 104.676 146.791 104.504L146.975 105.533C145.947 105.691 144.901 105.905 143.891 106.113L143.879 106.114ZM120.744 105.268C120.665 104.276 120.612 103.21 120.586 102.102L121.642 102.076C121.668 103.161 121.721 104.208 121.8 105.195L120.745 105.274L120.744 105.268ZM221.88 105.083C220.725 104.668 219.786 104.356 218.923 104.107L219.215 103.104L219.256 103.117C220.255 103.429 221.287 103.74 222.25 104.106L221.881 105.082L221.88 105.083ZM150.086 105.003L149.928 103.948C150.73 103.826 151.563 103.7 152.37 103.578L152.414 103.571L153.07 103.472L153.229 104.528C152.936 104.571 152.645 104.612 152.356 104.652C151.566 104.763 150.818 104.868 150.087 105.003H150.086ZM156.317 104.132L156.185 103.077C156.729 103.008 157.289 102.944 157.831 102.883C158.323 102.827 158.829 102.77 159.327 102.707L159.431 103.763C158.38 103.867 157.337 104.002 156.328 104.131H156.315L156.317 104.132ZM162.575 103.445L162.471 102.391C163.536 102.282 164.64 102.2 165.613 102.127L165.692 103.182C164.746 103.277 163.803 103.351 162.892 103.421L162.58 103.446L162.575 103.445ZM215.887 103.309C214.927 103.081 213.896 102.868 212.825 102.676L213.009 101.647C214.13 101.842 215.177 102.057 216.129 102.28L215.892 103.308L215.887 103.309ZM168.857 102.966L168.778 101.912C169.804 101.835 170.844 101.782 171.851 101.731H171.947L171.999 102.787H171.947C170.939 102.838 169.898 102.891 168.857 102.969V102.966ZM175.141 102.597L175.089 101.543C176.324 101.481 177.273 101.439 178.257 101.411L178.31 102.466C177.777 102.493 177.234 102.514 176.709 102.533H176.698C176.187 102.551 175.658 102.571 175.138 102.597H175.141ZM181.453 102.333L181.401 101.279C182.458 101.226 183.531 101.199 184.568 101.175L184.595 102.23C184.098 102.244 183.587 102.262 183.093 102.281C182.556 102.301 182.001 102.323 181.454 102.336L181.453 102.333ZM209.734 102.201C208.754 102.072 207.706 101.966 206.614 101.889L206.693 100.833C207.443 100.889 208.209 100.972 208.951 101.054H208.974C209.273 101.086 209.57 101.118 209.863 101.148L209.731 102.202L209.734 102.201ZM187.764 102.097L187.737 101.043C188.805 101.017 189.859 100.963 190.877 100.911L190.932 101.966L190.815 101.973C189.879 102.02 188.812 102.077 187.765 102.098L187.764 102.097ZM194.075 101.859L194.023 100.805C194.576 100.782 195.264 100.755 195.924 100.701C196.34 100.675 196.768 100.649 197.192 100.649L197.245 101.704C197.037 101.717 196.829 101.724 196.636 101.73C196.444 101.736 196.22 101.744 196.003 101.757C195.284 101.785 194.686 101.811 194.076 101.861L194.075 101.859ZM203.502 101.701C202.516 101.675 201.498 101.649 200.467 101.649H200.363V100.595H200.467C201.488 100.595 202.511 100.622 203.5 100.648H203.529L203.503 101.702L203.502 101.701ZM121.616 98.9331H120.56C120.56 98.0631 120.581 97.1734 120.604 96.1423V96.1371L120.612 95.7671L121.668 95.7931C121.655 96.3377 121.649 96.8564 121.643 97.3584V97.373C121.636 97.9155 121.629 98.429 121.616 98.9321V98.9331ZM121.8 92.6249L120.745 92.573V92.4867C120.771 91.7591 120.797 91.0139 120.849 90.2759L120.875 89.4319L121.932 89.4838L121.905 90.3289C121.854 91.0669 121.828 91.8173 121.801 92.5428V92.6229L121.8 92.6249ZM122.065 86.3178L121.009 86.2908C121.063 85.1318 121.089 84.108 121.089 83.1507L122.144 83.1767C122.144 83.7661 122.123 84.3897 122.103 85.0477V85.0601C122.089 85.4634 122.075 85.8792 122.066 86.3157L122.065 86.3178ZM121.087 80.0096C121.06 78.8382 121.033 77.8653 120.955 76.8914L122.011 76.8124C122.069 77.9017 122.115 78.8912 122.143 79.9795L121.089 80.0055L121.087 80.0096ZM120.664 73.7815C120.524 72.7607 120.33 71.7479 120.084 70.7475L121.113 70.4835C121.369 71.5343 121.573 72.5903 121.721 73.6235L120.665 73.7815H120.664ZM119.133 67.8174C118.744 66.8778 118.267 65.9771 117.709 65.1274L118.58 64.5464C119.179 65.4553 119.691 66.4182 120.111 67.4224L119.134 67.8174H119.133ZM60.6458 63.7263H60.3026C59.3312 63.7263 58.3713 63.7003 57.4509 63.6473L57.504 62.5912C58.3994 62.6442 59.3146 62.6702 60.3026 62.6702H60.6458V63.7242V63.7263ZM63.8417 63.6223L63.7866 62.5642C64.6966 62.5164 65.6212 62.426 66.6008 62.3303L66.9024 62.3012L67.0064 63.3562L66.684 63.3874C65.6846 63.483 64.7434 63.5735 63.8396 63.6213L63.8417 63.6223ZM54.282 63.3053C53.2241 63.1529 52.1756 62.9415 51.1412 62.6723L51.4054 61.6433C52.435 61.8938 53.4563 62.0985 54.4422 62.2503L54.2841 63.3043L54.282 63.3053ZM70.1524 62.9623L70.0204 61.9083C70.9272 61.7857 71.9464 61.6308 73.1404 61.4333L73.2984 62.4623C72.2772 62.6525 71.2496 62.8157 70.1576 62.9633L70.1524 62.9623ZM115.756 62.8584C115.004 62.1903 114.181 61.6065 113.301 61.1173L113.802 60.1943C114.762 60.7104 115.658 61.3384 116.47 62.0653L115.757 62.8563L115.756 62.8584ZM76.3841 61.9613L76.2 60.9334L77.7444 60.6558L79.2888 60.3783L79.474 61.4084C78.3414 61.6163 77.3305 61.7971 76.3852 61.9624L76.3841 61.9613ZM48.0504 61.7233C47.0481 61.3422 46.0695 60.9018 45.1196 60.4043L45.6209 59.4803C46.529 59.956 47.4638 60.379 48.4206 60.7473L48.0514 61.7233H48.0504ZM82.6158 60.8263L82.4317 59.7983L84.0136 59.5167H84.0198L85.5486 59.2443L85.7327 60.2744C84.8154 60.4345 83.9044 60.5976 83.0224 60.7556H83.0152L82.6179 60.8273L82.6158 60.8263ZM110.475 59.9553C109.488 59.6475 108.483 59.4007 107.466 59.2163L107.651 58.1872C108.706 58.3886 109.747 58.6527 110.771 58.9782L110.481 59.9542L110.475 59.9553ZM88.8215 59.7474L88.6634 58.6934C89.3082 58.5895 89.928 58.496 90.5271 58.4086H90.5375C90.9753 58.3452 91.3882 58.285 91.8052 58.2195L91.9373 59.2755C90.838 59.42 89.746 59.5967 88.8173 59.7495L88.8215 59.7474ZM95.0532 58.9294L94.9492 57.8744C96.0703 57.7704 97.1332 57.6894 98.118 57.6364L98.1711 58.6924C97.1914 58.7433 96.1732 58.8213 95.0511 58.9304L95.0532 58.9294ZM104.401 58.7714C103.396 58.6914 102.377 58.6394 101.281 58.6124V57.5511C102.348 57.5488 103.415 57.6015 104.477 57.7091L104.398 58.7641L104.401 58.7714ZM42.372 58.7444C41.4963 58.1519 40.6341 57.5044 39.8115 56.8183L40.4979 55.9993C41.2922 56.6658 42.1208 57.2903 42.9804 57.8702L42.374 58.7402L42.372 58.7444ZM37.484 54.6013C36.7545 53.8186 36.0758 52.9903 35.4518 52.1213L36.3233 51.5142C36.9146 52.3535 37.5678 53.1474 38.2775 53.8893L37.485 54.6013H37.484ZM33.7348 49.3762C33.2296 48.4309 32.7887 47.4527 32.415 46.4482L33.4186 46.0781C33.7643 47.0518 34.1883 47.9959 34.6864 48.9012L33.7368 49.3762H33.7348ZM31.5175 43.3528C31.2729 42.3101 31.0968 41.2525 30.9902 40.1868L32.0468 40.0828C32.1449 41.1047 32.3124 42.1187 32.5481 43.1179L31.5185 43.3549L31.5175 43.3528ZM31.8867 36.9667H30.8321C30.8399 35.8996 30.9014 34.8335 31.0162 33.7726L32.0728 33.9046C31.9782 34.8037 31.9168 35.8046 31.8877 36.9656L31.8867 36.9667Z" fill="#87C0F4"/>
<path d="M5.297 219.778L6.35364 219.725C6.38949 220.224 6.46919 220.718 6.5918 221.203L5.5622 221.411C5.35004 220.438 5.323 219.804 5.297 219.778Z" fill="#87C0F4"/>
<path d="M123.597 70.3504C111.45 76.4206 109.869 89.6159 108.809 97.533C107.749 105.45 103.264 116.271 96.3989 122.081C89.5339 127.89 83.7234 134.218 81.0828 148.205C78.4423 162.193 82.1395 171.958 78.1781 184.625C74.2167 197.292 61.8064 214.711 62.5989 228.962C63.3914 243.213 75.5375 241.63 75.5375 241.63H236.616C241.294 228.269 241.663 213.779 237.673 200.196C231.863 180.403 214.435 177.5 209.682 151.636C207.227 138.282 207.57 134.486 197.799 122.079C187.738 109.305 180.899 109.147 176.41 97.5351C171.922 85.9228 169.281 64.0183 142.61 70.6144C142.609 70.6144 135.744 64.2803 123.597 70.3504Z" fill="#1F1F39"/>
<path d="M217.577 241.498H176.143L165.847 201.515L209.761 194.574L217.577 241.498Z" fill="#F9D2DD"/>
<path d="M35.9292 215.503C27.4782 213.916 13.7502 205.21 15.332 186.736C16.9138 168.263 51.5084 113.896 51.5084 113.896C51.5084 113.896 45.9631 107.562 48.3395 99.9091C50.7159 92.256 59.167 90.1439 64.7102 89.8799C67.9159 89.697 71.1295 90.054 74.2168 90.9359L86.364 73.7857C86.364 73.7857 89.0056 70.3504 92.1745 71.9324C95.3434 73.5144 89.0056 83.8087 89.0056 83.8087L83.1962 95.686C83.1962 95.686 82.1395 105.976 79.7642 111.784C77.3888 117.593 76.067 118.914 76.067 118.914L63.3914 160.609L77.9182 156.65L64.7102 211.28C64.7102 211.28 44.3792 217.086 35.9292 215.503Z" fill="#FFEBF0"/>
<path d="M64.7121 211.281L77.9149 156.65L64.9233 160.184L52.0366 214.184C60.9359 213.022 64.7121 211.281 64.7121 211.281Z" fill="#F9ACC0"/>
<path d="M165.847 201.515L169.487 215.714L214.51 223.183L209.761 194.574L165.847 201.515Z" fill="#F9ACC0"/>
<path d="M214.435 214.711C214.435 214.711 208.361 154.802 178.258 145.566C148.156 136.33 127.298 139.232 117.788 142.136C108.277 145.04 67.6159 157.969 67.6159 157.969L58.9017 215.766L82.4057 213.391L78.4423 241.629H182.536C182.536 241.629 180.371 224.999 177.73 214.709L214.435 214.711Z" fill="#6A6DB0"/>
<path d="M214.435 214.711C214.435 214.711 208.361 154.802 178.258 145.566C148.156 136.33 127.298 139.232 117.788 142.136C108.277 145.04 67.6159 157.969 67.6159 157.969L58.9017 215.766L82.4057 213.391L78.4423 241.629H182.536C182.536 241.629 180.371 224.999 177.73 214.709L214.435 214.711Z" fill="#6A6DB0"/>
<path d="M208.651 189.533C204.612 184.992 193.865 174.411 180.952 173.804C170.284 173.303 167.64 166.758 165.293 161.005C163.788 157.309 162.388 153.799 159.14 151.82C153.252 148.231 147.204 150.157 139.6 152.585C136.071 153.785 132.473 154.772 128.826 155.541C121.986 156.887 117.815 153.799 115.49 150.975C113.946 149.051 112.789 146.847 112.084 144.483C112.065 144.417 112.06 144.348 112.069 144.281C112.077 144.213 112.1 144.147 112.134 144.088C112.168 144.029 112.215 143.977 112.269 143.937C112.324 143.896 112.387 143.866 112.453 143.85C112.519 143.831 112.588 143.826 112.656 143.834C112.724 143.843 112.79 143.865 112.849 143.899C112.909 143.934 112.96 143.98 113.001 144.035C113.042 144.09 113.072 144.153 113.088 144.219C113.757 146.441 114.852 148.511 116.312 150.315C119.432 154.089 123.547 155.488 128.617 154.511C132.223 153.731 135.784 152.754 139.282 151.582C146.861 149.154 153.41 147.069 159.698 150.922C163.234 153.086 164.794 156.913 166.299 160.607C168.623 166.361 171.026 172.299 181.034 172.748C194.34 173.351 205.354 184.202 209.47 188.82C209.517 188.871 209.552 188.932 209.575 188.997C209.598 189.063 209.607 189.132 209.602 189.201C209.597 189.27 209.578 189.338 209.546 189.399C209.514 189.461 209.47 189.515 209.417 189.559C209.314 189.651 209.185 189.706 209.048 189.717C208.972 189.72 208.896 189.705 208.827 189.673C208.758 189.641 208.698 189.593 208.651 189.533Z" fill="#EAEAFF"/>
<path d="M130.146 236.905C129.671 224.765 123.386 222.997 116.125 220.965C112.745 220.015 109.233 219.038 106.196 216.901C99.5148 212.23 100.307 207.295 101.232 201.567C101.785 198.654 102.024 195.69 101.945 192.726C101.496 184.281 94.684 182.011 85.2834 178.902C83.5154 178.321 81.6653 177.688 79.7642 177.002C74.7191 175.176 72.0255 170.954 71.9714 164.831C71.9802 161.89 72.453 158.968 73.3723 156.174L74.3759 156.517C73.4859 159.2 73.0312 162.007 73.0291 164.833C73.1082 170.533 75.4846 174.307 80.1323 175.996C82.0043 176.682 83.8555 177.289 85.6246 177.867C95.0782 181.007 102.525 183.488 103.026 192.646C103.119 195.681 102.88 198.716 102.312 201.698C101.388 207.505 100.728 211.727 106.854 216.003C109.759 218.035 113.165 218.985 116.466 219.909C123.808 221.969 130.753 223.894 131.251 236.826C131.303 238.364 131.444 239.897 131.674 241.418L130.565 241.603C130.335 240.047 130.195 238.478 130.146 236.905Z" fill="#EAEAFF"/>
<path d="M154.492 189.982C153.251 189.797 151.984 189.586 150.584 189.349C143.191 188.029 142.187 183.226 141.13 178.159C140.641 174.891 139.529 171.746 137.856 168.896C134.715 164.067 129.406 165.28 122.065 166.969C117.338 168.051 112.004 169.265 106.063 169.107C103.05 169.095 100.105 168.217 97.5767 166.58C95.0489 164.942 93.0451 162.613 91.8041 159.87C90.435 157.1 89.5848 154.104 89.2957 151.028L90.3523 150.949C90.6534 153.895 91.476 156.763 92.7817 159.42C95.5804 164.989 100.07 167.892 106.117 168.048C111.926 168.206 117.181 166.992 121.855 165.937C129.328 164.222 135.217 162.875 138.781 168.312C140.531 171.264 141.696 174.525 142.213 177.918C143.296 183.038 144.141 187.102 150.821 188.29C152.194 188.528 153.462 188.739 154.702 188.923C161.912 190.058 166.69 190.794 173.371 197.975L172.553 198.714C166.111 191.798 161.49 191.09 154.492 189.982Z" fill="#EAEAFF"/>
<path d="M113.827 99.1171C110.13 102.284 112.242 108.881 117.259 110.729C122.276 112.577 123.597 111.257 123.597 111.257L121.221 98.5891C120.104 97.8459 118.772 97.4944 117.434 97.59C116.095 97.6856 114.827 98.2227 113.827 99.1171Z" fill="#F9ACC0"/>
<path d="M122.805 116.271C123.658 118.209 124.892 119.955 126.435 121.406C127.977 122.856 129.796 123.981 131.783 124.715C132.068 127.891 131.89 131.091 131.255 134.216C130.739 136.76 129.943 139.239 128.881 141.607C128.881 141.607 130.465 145.037 141.557 145.566C152.648 146.095 154.232 141.607 154.232 141.607C153.494 137.426 153.141 133.186 153.176 128.94C153.544 124.423 154.161 119.93 155.024 115.481C155.024 115.481 162.153 117.856 166.643 113.369C171.132 108.883 170.075 100.438 164.53 99.9102C158.986 99.3821 156.077 104.134 156.077 104.134C156.077 104.134 148.155 100.436 144.987 94.3639C141.819 88.2917 141.555 84.0737 141.555 84.0737C141.555 84.0737 126.238 86.1848 120.956 98.5891C120.956 98.5891 119.9 109.673 122.805 116.271Z" fill="#F9D2DD"/>
<path d="M129.01 105.451C128.505 105.393 128.042 105.14 127.721 104.745C127.4 104.35 127.247 103.846 127.294 103.339C127.247 102.833 127.401 102.329 127.722 101.934C128.042 101.539 128.505 101.286 129.01 101.228C129.516 101.286 129.978 101.539 130.299 101.934C130.62 102.329 130.773 102.833 130.726 103.339C130.773 103.846 130.62 104.35 130.299 104.745C129.979 105.14 129.516 105.393 129.01 105.451Z" fill="#1F1F39"/>
<path d="M142.477 106.243C141.972 106.185 141.509 105.932 141.188 105.537C140.867 105.142 140.714 104.638 140.761 104.131C140.714 103.625 140.868 103.121 141.188 102.726C141.509 102.331 141.972 102.078 142.477 102.02C142.983 102.078 143.445 102.331 143.766 102.726C144.087 103.121 144.24 103.625 144.193 104.131C144.24 104.638 144.087 105.142 143.766 105.537C143.445 105.932 142.983 106.185 142.477 106.243Z" fill="#1F1F39"/>
<path d="M139.705 111.784C140.837 111.309 141.902 110.688 142.873 109.937C142.873 109.937 143.402 109.673 143.666 109.937C143.93 110.201 142.24 113.209 140.761 113.632C140.047 113.869 139.275 113.869 138.561 113.631C137.847 113.394 137.229 112.932 136.8 112.314C136.007 111.258 137.064 111.522 137.064 111.522C137.913 111.808 138.816 111.898 139.705 111.784Z" fill="#F95368"/>
<path d="M134.45 103.419C134.128 103.962 133.863 104.537 133.659 105.134C133.574 105.407 133.539 105.694 133.555 105.979C133.555 106.058 133.581 106.111 133.581 106.164L133.66 106.372C133.719 106.509 133.789 106.642 133.868 106.768C134.055 107.012 134.294 107.209 134.569 107.346C134.843 107.484 135.145 107.557 135.452 107.56C135.126 107.661 134.779 107.67 134.448 107.586C134.096 107.507 133.78 107.312 133.551 107.032C133.432 106.893 133.328 106.743 133.239 106.583L133.135 106.345C133.104 106.269 133.078 106.163 133.052 106.058C132.998 105.697 133.025 105.328 133.131 104.978C133.351 104.334 133.672 103.728 134.081 103.183C134.493 102.657 134.962 102.178 135.48 101.756L134.45 103.419Z" fill="#1F1F39"/>
<path d="M188.503 214.711C187.263 210.779 182.668 196.764 177.463 187.527C173.659 180.832 169.049 174.628 163.735 169.054C163.735 169.054 170.287 188.002 172.185 194.389C174.057 200.644 178.866 219.672 178.866 219.672C178.497 217.93 178.126 216.242 177.73 214.711H188.503Z" fill="#224BF4"/>
<path d="M142.187 96.953C142.704 96.7609 143.247 96.6453 143.798 96.61C144.361 96.5731 144.925 96.6437 145.462 96.8179C146.013 96.9727 146.49 97.3188 146.809 97.7939C146.324 97.6102 145.818 97.4873 145.303 97.4281C144.811 97.3801 144.317 97.3714 143.824 97.4021C143.321 97.4287 142.819 97.4814 142.321 97.5601L140.761 97.7981C141.184 97.4367 141.667 97.1509 142.187 96.953Z" fill="#1F1F39"/>
<path d="M126.318 95.29C127.701 95.121 129.101 95.4362 130.278 96.1818C130.572 96.3737 130.838 96.6045 131.07 96.8678C131.307 97.1253 131.464 97.4466 131.52 97.7918C131.328 97.5339 131.085 97.3184 130.806 97.1588C130.533 97.0025 130.251 96.8616 129.962 96.7368C129.385 96.5077 128.794 96.3136 128.194 96.1558C127.586 96.0161 126.967 95.9295 126.344 95.897C125.71 95.897 125.05 95.897 124.389 95.949C124.979 95.5974 125.636 95.3729 126.318 95.29Z" fill="#1F1F39"/>
<path d="M243.742 241.365V242.238H27.214V241.365H243.742Z" fill="#1F1F39"/>
<path d="M70.0984 115.428C67.6622 113.146 66.0549 110.119 65.5297 106.823C65.1334 104.237 65.2925 100.569 66.9295 98.6421C67.1078 98.4068 67.3343 98.2121 67.5938 98.0711C67.8532 97.93 68.1398 97.8458 68.4344 97.8241C69.8072 97.8241 70.3064 98.8531 71.154 100.569C71.4181 101.123 71.7353 101.73 72.1045 102.44C73.6677 105.266 78.0991 109.726 78.1251 109.777C78.1493 109.802 78.1686 109.83 78.1817 109.862C78.1948 109.894 78.2016 109.928 78.2016 109.962C78.2016 109.996 78.1948 110.03 78.1817 110.062C78.1686 110.093 78.1493 110.122 78.1251 110.146C78.1009 110.17 78.0721 110.19 78.0404 110.203C78.0087 110.216 77.9748 110.223 77.9405 110.223C77.9062 110.223 77.8723 110.216 77.8406 110.203C77.8089 110.19 77.7801 110.17 77.7559 110.146C77.5708 109.964 73.2142 105.609 71.6293 102.709C71.2341 101.994 70.9429 101.358 70.6517 100.806C69.8072 99.0641 69.412 98.3521 68.4084 98.3521C67.9699 98.4091 67.5716 98.6366 67.2997 98.9851C66.3481 100.094 65.4246 102.813 66.0049 106.744C66.5235 109.916 68.0733 112.829 70.4145 115.031C70.4411 115.054 70.4628 115.081 70.4786 115.112C70.4943 115.142 70.5036 115.176 70.5061 115.21C70.5085 115.245 70.5039 115.279 70.4927 115.312C70.4814 115.345 70.4637 115.375 70.4405 115.4C70.4189 115.428 70.3906 115.45 70.3582 115.464C70.3258 115.478 70.2904 115.483 70.2554 115.479C70.1991 115.478 70.1444 115.46 70.0984 115.428Z" fill="#1F1F39"/>
<path d="M58.4264 105.846C54.334 104.474 54.281 102.521 54.281 102.442C54.2788 102.407 54.2842 102.372 54.2967 102.339C54.3093 102.306 54.3287 102.276 54.3536 102.251C54.3786 102.226 54.4086 102.206 54.4416 102.194C54.4746 102.181 54.5099 102.176 54.5451 102.178C54.6152 102.178 54.6824 102.206 54.7319 102.255C54.7815 102.305 54.8093 102.372 54.8093 102.442C54.8093 102.468 54.9133 104.131 58.5855 105.371C59.7149 105.734 60.9083 105.853 62.087 105.721C63.2658 105.589 64.4033 105.209 65.4246 104.606C65.4541 104.587 65.487 104.574 65.5216 104.568C65.5561 104.561 65.5916 104.562 65.6259 104.569C65.6602 104.577 65.6928 104.591 65.7217 104.611C65.7506 104.631 65.7752 104.656 65.7943 104.686C65.8133 104.715 65.8264 104.748 65.8327 104.783C65.839 104.817 65.8385 104.853 65.8311 104.887C65.8237 104.921 65.8096 104.954 65.7897 104.983C65.7697 105.012 65.7442 105.036 65.7147 105.055C64.3225 105.827 62.7647 106.253 61.173 106.295C60.2396 106.291 59.3127 106.139 58.4264 105.846Z" fill="#1F1F39"/>
<path d="M145.514 125.245C141.025 126.392 136.316 126.374 131.836 125.192C132.068 128.213 131.873 131.251 131.255 134.218C131.176 134.587 131.097 134.93 131.017 135.247C134.496 135.298 137.933 134.491 141.025 132.898C147.627 129.467 148.683 124.453 148.683 124.453C147.612 124.657 146.554 124.921 145.514 125.245Z" fill="#F9ACC0"/>
<path d="M49.7871 163.169C49.7739 163.1 49.7883 163.028 49.8272 162.97C49.8662 162.912 49.9265 162.871 49.9951 162.857L67.3787 159.31C67.4476 159.297 67.519 159.312 67.5773 159.35C67.6357 159.389 67.6764 159.45 67.6907 159.518C67.7039 159.587 67.6895 159.658 67.6506 159.717C67.6117 159.775 67.5514 159.816 67.4827 159.83L50.1085 163.38H50.0565C49.9935 163.384 49.9312 163.364 49.8815 163.325C49.8319 163.287 49.7982 163.231 49.7871 163.169Z" fill="#1F1F39"/>
<path d="M137.457 126.432C136.063 126.367 134.682 126.145 133.338 125.772C132.784 125.624 132.239 125.448 131.704 125.245C131.639 125.219 131.586 125.169 131.556 125.105C131.527 125.041 131.523 124.968 131.546 124.902C131.572 124.836 131.622 124.783 131.686 124.754C131.749 124.724 131.822 124.72 131.889 124.743C132.417 124.938 132.955 125.105 133.5 125.245C134.808 125.611 136.155 125.824 137.513 125.878C140.873 126.041 144.235 125.603 147.441 124.585C147.508 124.562 147.58 124.566 147.644 124.595C147.708 124.625 147.758 124.677 147.784 124.743C147.807 124.809 147.803 124.882 147.774 124.946C147.744 125.009 147.691 125.06 147.626 125.086C144.762 126.016 141.766 126.479 138.754 126.458C138.332 126.459 137.883 126.459 137.457 126.432Z" fill="#1F1F39"/>
<path d="M120.56 109.805C120.368 108.258 119.836 106.772 119.002 105.453C117.497 102.706 116.23 102.152 116.23 102.127C116.196 102.116 116.166 102.097 116.141 102.072C116.116 102.048 116.096 102.018 116.084 101.985C116.071 101.952 116.066 101.917 116.068 101.882C116.071 101.847 116.081 101.813 116.098 101.782C116.126 101.719 116.176 101.668 116.239 101.638C116.303 101.609 116.374 101.604 116.441 101.624C116.494 101.65 117.868 102.231 119.478 105.16C120.37 106.552 120.922 108.135 121.089 109.779C121.093 109.816 121.09 109.854 121.079 109.889C121.067 109.925 121.048 109.958 121.023 109.985C120.998 110.013 120.967 110.035 120.933 110.049C120.899 110.064 120.862 110.071 120.824 110.069C120.789 110.071 120.754 110.066 120.721 110.054C120.688 110.041 120.658 110.022 120.633 109.997C120.608 109.972 120.588 109.942 120.576 109.909C120.563 109.876 120.558 109.841 120.56 109.805Z" fill="#1F1F39"/>
<path d="M177.26 214.474C176.283 211.148 174.857 206.003 173.484 200.275C170.865 189.322 163.524 169.371 163.445 169.16C163.422 169.093 163.426 169.021 163.455 168.957C163.485 168.893 163.537 168.843 163.603 168.817C163.67 168.794 163.743 168.797 163.807 168.826C163.871 168.856 163.922 168.909 163.948 168.975C164.027 169.183 171.368 189.164 173.982 200.142C175.355 205.87 176.781 211.016 177.731 214.315C177.74 214.347 177.743 214.382 177.738 214.415C177.734 214.449 177.723 214.481 177.705 214.51C177.688 214.539 177.665 214.565 177.638 214.585C177.61 214.605 177.579 214.619 177.546 214.627C177.572 214.627 177.546 214.653 177.52 214.653C177.465 214.648 177.412 214.629 177.366 214.598C177.321 214.566 177.284 214.524 177.26 214.474Z" fill="#1F1F39"/>
<path d="M100.888 45.8069C100.87 45.9824 100.87 46.1593 100.888 46.3349V45.8069Z" fill="#EAEAFF"/>
<path d="M94.0048 58.1602C93.904 58.1601 93.8034 58.1507 93.7043 58.1322H93.2862C93.1054 58.1341 92.926 58.1 92.7585 58.0317C92.5911 57.9634 92.439 57.8624 92.3111 57.7346C92.1833 57.6069 92.0822 57.4548 92.0139 57.2875C91.9456 57.1202 91.9114 56.9409 91.9134 56.7601V47.2319H83.7504C83.0357 47.2331 82.3278 47.0933 81.6673 46.8206C81.0068 46.5479 80.4066 46.1475 79.9012 45.6425C79.3958 45.1375 78.9951 44.5377 78.7221 43.8776C78.4491 43.2175 78.3091 42.51 78.3102 41.7958V25.9874C78.3091 25.2731 78.4491 24.5656 78.7221 23.9054C78.9951 23.2452 79.3958 22.6454 79.9012 22.1403C80.4065 21.6352 81.0067 21.2348 81.6672 20.9619C82.3278 20.689 83.0357 20.5492 83.7504 20.5503H119.078C120.523 20.5516 121.909 21.1241 122.933 22.1427C123.957 23.1613 124.536 24.5434 124.544 25.9874V41.8218C124.545 42.536 124.405 43.2434 124.132 43.9034C123.859 44.5635 123.458 45.1632 122.953 45.6682C122.448 46.1732 121.848 46.5735 121.187 46.8463C120.527 47.1191 119.819 47.259 119.104 47.2579H106.143L94.9502 57.7881C94.8255 57.9102 94.6776 58.006 94.5153 58.07C94.3529 58.1339 94.1793 58.1646 94.0048 58.1602ZM92.1692 25.9739C91.9063 25.9716 91.6434 25.9848 91.3819 26.0134C91.1382 26.6891 91.0283 27.4057 91.0585 28.1234C91.1305 30.1628 91.6942 32.1546 92.7017 33.9295C94.5216 37.0829 97.2956 39.578 100.624 41.0557C106.066 40.2647 109.77 38.4333 111.636 35.6113C112.743 33.9542 113.151 31.9275 112.772 29.9715C112.198 29.8235 111.607 29.7535 111.015 29.7636C109.08 29.7812 107.2 30.4083 105.642 31.5555C102.23 33.9815 101.53 36.0697 101.416 37.0976C101.314 34.2591 100.397 31.5098 98.7753 29.1773C98.0127 28.1523 97.0141 27.3259 95.8642 26.7683C94.7143 26.2107 93.4469 25.9382 92.1692 25.9739Z" fill="white"/>
<path d="M105.905 36.3056C109.073 33.6666 111.45 31.2915 111.45 31.2915C109.944 32.0046 108.526 32.8902 107.225 33.9306C104.887 35.9877 102.682 38.1915 100.623 40.5287C100.623 40.5287 102.736 38.9447 105.905 36.3056Z" fill="white"/>
<path d="M96.1347 33.9306C97.3261 36.3223 98.8361 38.5419 100.623 40.5287C100.623 40.5287 99.3025 37.6257 97.7186 34.4586C96.5215 32.214 95.1065 30.0924 93.4941 28.1244C93.4941 28.1244 93.7583 29.4445 96.1347 33.9306Z" fill="white"/>
<path d="M211.441 101.151C211.268 101.154 211.096 101.123 210.935 101.059C210.775 100.996 210.628 100.901 210.505 100.78L199.307 90.2499H186.339C185.624 90.251 184.917 90.1111 184.256 89.8383C183.595 89.5654 182.995 89.1649 182.49 88.6598C181.985 88.1547 181.584 87.5549 181.311 86.8948C181.038 86.2346 180.898 85.5271 180.899 84.8127V69.0054C180.898 68.2911 181.038 67.5836 181.311 66.9234C181.584 66.2633 181.985 65.6634 182.49 65.1583C182.995 64.6532 183.595 64.2528 184.256 63.9799C184.917 63.7071 185.624 63.5672 186.339 63.5683H221.667C223.107 63.5682 224.488 64.1358 225.512 65.1478C226.535 66.1597 227.118 67.5344 227.133 68.9732V84.7868C227.134 85.5011 226.994 86.2085 226.721 86.8686C226.448 87.5287 226.047 88.1285 225.542 88.6335C225.037 89.1386 224.436 89.5391 223.776 89.812C223.115 90.0849 222.408 90.2249 221.693 90.2239H213.537V99.7501C213.539 99.9308 213.505 100.11 213.437 100.277C213.368 100.445 213.267 100.597 213.14 100.725C213.012 100.852 212.86 100.953 212.692 101.022C212.525 101.09 212.345 101.124 212.164 101.122H211.741C211.642 101.141 211.541 101.151 211.441 101.151ZM210.563 69.7673C210.452 69.7676 210.341 69.7865 210.236 69.8234L205.271 71.5125C205.087 71.5803 204.928 71.7023 204.815 71.8625C204.702 72.0227 204.64 72.2134 204.638 72.4095V83.4147C204.634 83.4692 204.643 83.5238 204.665 83.5738C204.697 83.6646 204.756 83.7433 204.834 83.7992C204.913 83.855 205.007 83.8852 205.103 83.8856C205.151 83.8857 205.199 83.878 205.245 83.8627L210.87 81.9357C211.071 81.8662 211.243 81.7336 211.363 81.5576C211.482 81.3816 211.54 81.1718 211.53 80.9597V70.7475C211.525 70.6436 211.508 70.5406 211.479 70.4408V70.4305C211.417 70.2365 211.295 70.0674 211.13 69.948C210.965 69.8287 210.766 69.7653 210.563 69.7673ZM197.459 69.7673C197.197 69.7736 196.948 69.8821 196.765 70.0695C196.583 70.257 196.481 70.5086 196.481 70.7703V80.9836C196.48 81.1873 196.544 81.3861 196.662 81.5518C196.781 81.7175 196.948 81.8417 197.142 81.9066L202.763 83.8367C202.804 83.8578 202.849 83.8668 202.895 83.8627C202.956 83.8658 203.017 83.8565 203.074 83.8354C203.132 83.8142 203.184 83.7817 203.229 83.7397C203.273 83.6978 203.308 83.6473 203.333 83.5912C203.357 83.5352 203.37 83.4748 203.37 83.4137V72.4095C203.368 72.2137 203.307 72.0231 203.194 71.863C203.081 71.7028 202.923 71.5806 202.739 71.5125L197.772 69.8224C197.669 69.7923 197.563 69.7749 197.456 69.7704L197.459 69.7673Z" fill="white"/>
<path d="M149.343 112.576C146.5 112.576 144.194 111.159 144.194 109.409C144.194 107.66 146.5 106.242 149.343 106.242C152.187 106.242 154.49 107.66 154.49 109.409C154.49 111.159 152.188 112.576 149.343 112.576Z" fill="#F9ACC0"/>
<path d="M120.903 107.166C121.002 108.779 121.205 110.383 121.511 111.969C122.462 112.376 123.487 112.582 124.522 112.576C127.373 112.576 129.671 111.151 129.671 109.409C129.671 107.667 127.373 106.242 124.522 106.242C123.253 106.21 122.001 106.53 120.903 107.166V107.166Z" fill="#F9ACC0"/>
<path d="M154.995 115.69C155.009 115.622 155.018 115.553 155.021 115.483C156.18 115.829 157.377 116.033 158.586 116.09C158.56 115.905 158.507 115.721 158.454 115.483C157.398 112.312 160.83 106.242 160.83 106.242C160.83 106.242 157.134 107.034 155.549 112.312C155.208 113.407 155.021 114.544 154.995 115.69V115.69Z" fill="#F9ACC0"/>
<path d="M155.074 113.21C155.041 113.199 155.01 113.18 154.984 113.157C154.958 113.133 154.937 113.104 154.922 113.072C154.908 113.04 154.9 113.006 154.898 112.97C154.897 112.935 154.903 112.9 154.916 112.867C155.52 111.332 156.328 109.885 157.318 108.565C158.354 107.001 159.748 105.708 161.385 104.791C161.446 104.765 161.513 104.761 161.576 104.78C161.639 104.799 161.693 104.84 161.729 104.895C161.755 104.955 161.759 105.023 161.739 105.086C161.72 105.148 161.68 105.203 161.625 105.238C160.074 106.126 158.753 107.365 157.767 108.855C156.823 110.138 156.035 111.529 155.419 112.998C155.406 113.061 155.374 113.118 155.326 113.161C155.279 113.204 155.219 113.23 155.155 113.236C155.14 113.239 155.125 113.237 155.111 113.233C155.097 113.228 155.084 113.221 155.074 113.21Z" fill="#1F1F39"/>
<path d="M89.2957 181.458C89.2957 181.458 86.1009 193.624 78.7065 203.39C73.5834 210.172 64.5261 214.025 59.4301 215.74L82.2185 213.418L89.2957 181.458Z" fill="#224BF4"/>
<path d="M82.3776 213.656C82.3116 213.64 82.2526 213.603 82.2097 213.55C82.1667 213.498 82.142 213.433 82.1394 213.365C82.1394 213.286 83.222 204.814 85.0441 196.712C86.8662 188.611 91.0907 174.148 91.1177 173.99C91.1397 173.926 91.1835 173.872 91.2416 173.837C91.2996 173.802 91.3681 173.789 91.4349 173.8C91.497 173.822 91.5493 173.866 91.583 173.923C91.6168 173.979 91.6298 174.046 91.62 174.111C91.566 174.254 87.3675 188.716 85.5454 196.791C83.7233 204.867 82.6677 213.313 82.6407 213.392C82.6435 213.425 82.6395 213.458 82.6289 213.49C82.6183 213.522 82.6013 213.551 82.579 213.575C82.5566 213.6 82.5294 213.62 82.4991 213.634C82.4687 213.648 82.4359 213.655 82.4025 213.656H82.3776Z" fill="#1F1F39"/>
</svg>
