<svg width="400" height="100" viewBox="0 0 400 100" fill="none" xmlns="http://www.w3.org/2000/svg">
<path d="M78.9231 54.6878C36.8308 83.3337 8.55857 94.7427 3.05176e-05 92.7119L3.05176e-05 39.5836C29.4646 46.8753 39.9877 46.3544 59.9816 36.4586C76.0443 28.5084 90.4985 8.85439 98.917 0.000213623H138.771C97.8646 14.0627 105.031 36.9199 78.9231 54.6878Z" fill="#F8F8F8" fill-opacity="0.24"/>
<path d="M400 73.9583V29.8267C400 34.5217 335.793 7.29151 311.363 7.2915C286.934 7.2915 258.204 26.5552 266.889 52.9879C273.779 73.9583 300.421 71.215 307.145 62.1014C313.869 52.9879 312.515 40.6249 303.789 37.4929C295.063 34.3609 287.143 49.6637 293.72 50.9157C295.287 45.0992 301.507 44.8501 300.88 51.736C298.803 61.5246 286.354 59.4497 281.859 48.5495C281.359 47.3378 281.309 45.9781 281.64 44.7098C287.22 23.3027 309.425 25.9593 313.293 26.5932C313.686 26.6577 314.063 26.7074 314.459 26.7489C318.329 27.1539 340.489 30.4499 359.284 53.9269C379.955 79.7487 392.483 72.0803 400 73.9583Z" fill="white" fill-opacity="0.15"/>
<path fill-rule="evenodd" clip-rule="evenodd" d="M198.137 100H214.122C213.862 98.3424 213.455 96.6508 212.889 94.9289C205.999 73.9585 179.357 76.7017 172.633 85.8153C169.359 90.2534 168 95.4622 168.476 100H179.513C179.006 99.1463 178.743 97.881 178.898 96.1807C180.976 86.3921 193.424 88.467 197.919 99.3672C198.005 99.5742 198.077 99.7856 198.137 100ZM184.485 100C185.151 99.2772 185.716 98.272 186.058 97.001C187.679 97.3095 188.419 98.4713 188.484 100H184.485Z" fill="white" fill-opacity="0.15"/>
</svg>
