<svg width="128" height="128" viewBox="0 0 128 128" fill="none" xmlns="http://www.w3.org/2000/svg">
<path fill-rule="evenodd" clip-rule="evenodd" d="M83.25 63C84.2446 63 85.1984 63.3951 85.9017 64.0983C86.6049 64.8016 87 65.7554 87 66.75V70.5H90.75C91.7446 70.5 92.6984 70.8951 93.4017 71.5983C94.1049 72.3016 94.5 73.2554 94.5 74.25C94.5 75.2446 94.1049 76.1984 93.4017 76.9016C92.6984 77.6049 91.7446 78 90.75 78H87V81.75C87 82.7446 86.6049 83.6984 85.9017 84.4016C85.1984 85.1049 84.2446 85.5 83.25 85.5C82.2554 85.5 81.3016 85.1049 80.5984 84.4016C79.8951 83.6984 79.5 82.7446 79.5 81.75V78H75.75C74.7554 78 73.8016 77.6049 73.0983 76.9016C72.3951 76.1984 72 75.2446 72 74.25C72 73.2554 72.3951 72.3016 73.0983 71.5983C73.8016 70.8951 74.7554 70.5 75.75 70.5H79.5V66.75C79.5 65.7554 79.8951 64.8016 80.5984 64.0983C81.3016 63.3951 82.2554 63 83.25 63ZM83.25 100.5C84.2446 100.5 85.1984 100.895 85.9017 101.598C86.6049 102.302 87 103.255 87 104.25V108H90.75C91.7446 108 92.6984 108.395 93.4017 109.098C94.1049 109.802 94.5 110.755 94.5 111.75C94.5 112.745 94.1049 113.698 93.4017 114.402C92.6984 115.105 91.7446 115.5 90.75 115.5H87V119.25C87 120.245 86.6049 121.198 85.9017 121.902C85.1984 122.605 84.2446 123 83.25 123C82.2554 123 81.3016 122.605 80.5984 121.902C79.8951 121.198 79.5 120.245 79.5 119.25V115.5H75.75C74.7554 115.5 73.8016 115.105 73.0983 114.402C72.3951 113.698 72 112.745 72 111.75C72 110.755 72.3951 109.802 73.0983 109.098C73.8016 108.395 74.7554 108 75.75 108H79.5V104.25C79.5 103.255 79.8951 102.302 80.5984 101.598C81.3016 100.895 82.2554 100.5 83.25 100.5ZM109.5 63C110.328 62.9997 111.132 63.2732 111.788 63.7779C112.444 64.2825 112.914 64.99 113.126 65.79L117.548 82.5L127.5 88.2389V90C127.5 90.5 127.5 90.5 127.5 91.5C127.5 92 127.5 92.3418 127.5 93C127.5 93.6582 127.5 93.5 127.5 94C127.5 95 127.5 96 127.5 97V97.7619L117.548 103.504L113.123 120.21C112.91 121.009 112.44 121.716 111.784 122.22C111.129 122.724 110.325 122.998 109.498 122.998C108.671 122.998 107.867 122.724 107.212 122.22C106.556 121.716 106.086 121.009 105.874 120.21L101.453 103.5L88.875 96.2475C88.305 95.9184 87.8316 95.445 87.5025 94.8749C87.1734 94.3049 87.0002 93.6582 87.0002 93C87.0002 92.3418 87.1734 91.6951 87.5025 91.1251C87.8316 90.555 88.305 90.0816 88.875 89.7525L101.453 82.4962L105.878 65.79C106.089 64.9906 106.559 64.2836 107.214 63.779C107.869 63.2744 108.673 63.0006 109.5 63Z" fill="#FFFEDA"/>
</svg>
