<svg width="128" height="128" viewBox="0 0 128 128" fill="none" xmlns="http://www.w3.org/2000/svg">
<path d="M72.2953 89.9303C89.0677 77.6174 103.478 92.4697 105.998 95.3192C106.265 95.6218 106.531 95.9053 106.814 96.1928C108.947 98.3544 118.482 108.902 121.822 127.793C123.094 126.862 128.199 124.793 127.994 113.793C127.789 102.793 127.994 96.7925 127.994 93.0537C123.777 87.5288 119.741 82.9048 116.204 80.0194C98.5032 65.5784 66.1383 62.7655 56.5864 87.3432C49.0084 106.842 69.9575 120.573 80.2926 117.844C90.6276 115.115 97.0575 105.22 92.6121 97.7579C88.1667 90.2957 73.255 96.8708 77.2703 101.68C81.8918 98.327 86.5481 101.821 81.9666 106.516C74.61 112.474 66.8523 103.643 70.072 92.9998C70.4462 91.7628 71.2538 90.6949 72.2953 89.9303Z" fill="#F8E2A3" fill-opacity="0.54"/>
</svg>
