<svg width="128" height="128" viewBox="0 0 128 128" fill="none" xmlns="http://www.w3.org/2000/svg">
<path d="M110.856 69.5906C118.189 72.1787 115.528 86.3051 114.09 93.3144C114.09 89.8637 110.855 87.9227 109.238 86.8442C101.905 84.2562 107.081 79.1161 109.777 77.1391C107.081 73.5446 103.523 67.0025 110.856 69.5906Z" fill="#EF5DA8" fill-opacity="0.5"/>
<path d="M94.1412 86.8442C88.2103 74.9823 114.09 87.9226 113.552 93.8537C109.238 89.9717 106.003 90.4388 104.386 91.1577C94.8962 93.7457 93.0629 88.4618 94.1412 86.8442Z" fill="#EF5DA8" fill-opacity="0.5"/>
<path d="M93.6021 95.4711C101.151 91.7845 110.316 90.0793 112.473 94.3928C106.003 99.7845 96.2975 101.402 96.8367 97.0886C93.8172 97.9513 91.9841 97.6278 93.6021 95.4711Z" fill="#EF5DA8" fill-opacity="0.5"/>
<path d="M117.865 92.2362C117.865 93.1295 117.14 93.8537 116.247 93.8537C115.354 93.8537 114.63 93.1295 114.63 92.2362C114.63 91.3428 115.354 90.6187 116.247 90.6187C117.14 90.6187 117.865 91.3428 117.865 92.2362Z" fill="#EF5DA8" fill-opacity="0.5"/>
<path d="M114.56 93.1851C115 92.8572 115.627 93.1606 115.642 93.7089V93.7089C115.647 93.9077 115.565 94.0989 115.417 94.2318L109.587 99.4609C109.149 99.8546 108.469 99.8006 108.098 99.3425V99.3425C107.73 98.8876 107.814 98.2175 108.283 97.8674L114.56 93.1851Z" fill="#EF5DA8" fill-opacity="0.5"/>
<path d="M76.5504 91.3464C86.4713 93.9345 83.9192 103.927 81.403 108.6C86.9745 107.701 96.9313 107.629 92.1865 114.531C87.4418 121.432 76.5504 108.6 76.5504 108.6C76.5504 108.6 64.1493 88.1113 76.5504 91.3464Z" fill="#EF5DA8" fill-opacity="0.5"/>
<path d="M65.2276 105.384C69.5411 103.228 78.1679 111.315 78.1679 111.315C78.1679 111.315 83.5597 116.707 83.0205 118.324C80.4325 120.481 76.9099 114.91 75.472 111.854C73.8545 112.932 59.8358 108.08 65.2276 105.384Z" fill="#EF5DA8" fill-opacity="0.5"/>
</svg>
