<svg width="430" height="812" viewBox="0 0 430 812" fill="none" xmlns="http://www.w3.org/2000/svg">
<g clip-path="url(#clip0_311_960)">
<path d="M431.5 355.196V242.096C431.5 254.128 267.188 184.343 204.672 184.343C142.155 184.343 68.6332 233.712 90.8586 301.453C108.491 355.196 176.67 348.166 193.877 324.809C211.084 301.453 207.619 269.769 185.288 261.743C162.958 253.716 142.69 292.934 159.522 296.143C163.53 281.236 179.448 280.598 177.845 298.245C172.347 324.182 138.48 317.618 128.069 287.158C127.646 285.919 127.593 284.535 127.878 283.258C141.316 222.936 204.03 232.778 210.538 233.97C210.93 234.042 211.253 234.084 211.65 234.118C218.041 234.664 277.323 241.336 327.303 303.86C380.203 370.036 412.264 350.383 431.5 355.196Z" fill="#F6E6B6"/>
<path d="M269.604 81.7162C167.127 9.06199 24.9021 51.9558 1.5 58.7123V254.863C84.1702 161.48 189.3 123.988 275.919 162.556C366.053 202.69 419.553 200.813 431.5 202.69V127.583C415.299 130.961 353.997 141.549 269.604 81.7162Z" fill="#F6E6B6"/>
<path d="M371.356 126.156C371.725 117.672 385.957 120.469 393.027 122.928C394.718 124.312 398.283 127.724 399.021 130.306C399.943 133.533 370.895 136.761 371.356 126.156Z" fill="#73C68F" fill-opacity="0.6"/>
<path d="M398.171 166.135C398.812 157.668 417.807 165.309 421.644 172.618C422.66 174.552 426.955 181.954 424.277 181.751C406.34 180.394 397.405 176.25 398.171 166.135Z" fill="#73C68F" fill-opacity="0.6"/>
<path d="M384.091 142.222C381.816 134.041 399.388 138.829 406 142.338C407.46 143.963 410.463 147.879 410.799 150.543C411.218 153.874 387.955 156.126 384.091 142.222Z" fill="#73C68F" fill-opacity="0.6"/>
<path d="M401.613 190.9C400.846 181.205 419.552 190.432 426.218 195.823C427.504 197.969 430.024 203.028 429.818 206.097C429.561 209.933 402.916 207.377 401.613 190.9Z" fill="#73C68F" fill-opacity="0.6"/>
<path d="M434.539 155.96C427.145 154.216 422.924 167.152 422.208 174.233L423.792 181.519C435.409 186.482 443.781 158.141 434.539 155.96Z" fill="#73C68F" fill-opacity="0.6"/>
<path d="M412.915 115.967C404.4 116.878 403.641 130.571 404.95 137.513L408.81 143.853C422.842 144.523 423.558 114.828 412.915 115.967Z" fill="#73C68F" fill-opacity="0.6"/>
<path d="M397.698 95.0563C389.338 93.8805 387.819 108.25 389.338 115.551L395.022 123.992C408.205 125.282 407.558 96.4432 397.698 95.0563Z" fill="#73C68F" fill-opacity="0.6"/>
<path d="M424.401 135.885C416.746 134.932 414.334 149.443 414.611 157.184L417.224 164.858C429.53 163.503 433.97 137.077 424.401 135.885Z" fill="#73C68F" fill-opacity="0.6"/>
<path d="M434.524 224.827C428.069 163.504 401.788 125.234 375.506 102.18C412.854 138.144 430.221 203.156 431.758 228.054L434.524 224.827Z" fill="#3F905B" fill-opacity="0.6"/>
<path d="M384.267 109.557C383.037 101.412 376.889 83.6448 362.135 77.743C343.692 70.3657 380.578 120.623 384.267 109.557Z" fill="#73C68F" fill-opacity="0.6"/>
<path d="M76.6945 172.111C78.3371 163.779 63.847 163.141 56.3966 163.863C54.4274 164.808 50.1576 167.283 48.8316 169.618C47.1742 172.537 74.6413 182.525 76.6945 172.111Z" fill="#C3EFA8"/>
<path d="M42.1789 204.874C43.5533 196.494 23.2915 199.439 17.8386 205.637C16.3957 207.277 10.4755 213.457 13.1254 213.891C30.8772 216.803 40.5371 214.883 42.1789 204.874Z" fill="#C3EFA8"/>
<path d="M60.5302 184.72C64.6699 177.305 46.4647 177.814 39.2117 179.665C37.4097 180.899 33.5673 183.996 32.6131 186.506C31.4203 189.644 53.4952 197.32 60.5302 184.72Z" fill="#C3EFA8"/>
<path d="M32.9927 228.128C36.0248 218.887 15.6696 223.441 7.92036 227.108C6.16471 228.89 2.52249 233.212 1.99882 236.243C1.34424 240.031 27.8402 243.832 32.9927 228.128Z" fill="#C3EFA8"/>
<path d="M-3.29214 200.618C4.39897 200.207 5.45754 215.394 4.46863 223.378L1.1669 231.117C-11.4486 234.223 -12.906 201.131 -3.29214 200.618Z" fill="#73C68F" fill-opacity="0.6"/>
<path d="M9.23669 186.407C16.8332 186.456 17.8841 200.023 16.9102 207.073L13.6517 213.779C1.19229 215.863 -0.258925 186.346 9.23669 186.407Z" fill="#73C68F" fill-opacity="0.6"/>
<path d="M39.6835 152.642C47.7428 155.536 45.2513 169.022 42.3415 175.459L37.0953 180.71C23.3014 178.052 29.6095 149.025 39.6835 152.642Z" fill="#C3EFA8"/>
<path d="M58.4319 135.675C66.8327 136.504 64.92 150.827 61.7214 157.564L54.2069 164.426C41.0924 162.57 48.523 134.698 58.4319 135.675Z" fill="#C3EFA8"/>
<path d="M23.8238 169.29C31.4881 170.169 30.4093 184.84 28.3136 192.297L23.9648 199.138C12.325 194.919 14.2434 168.191 23.8238 169.29Z" fill="#73C68F" fill-opacity="0.6"/>
<path d="M-7.96393 253.098C12.7731 195.028 47.3395 164.037 78.317 147.833C33.5408 173.973 1.32941 233.054 -6.03678 256.887L-7.96393 253.098Z" fill="#3F905B" fill-opacity="0.6"/>
<path d="M68.0637 152.935C71.1798 145.309 81.3447 129.494 97.0749 127.238C116.738 124.419 69.0382 164.559 68.0637 152.935Z" fill="#C3EEA8"/>
<path d="M378.55 56.3464C388.471 58.9345 385.919 68.9273 383.403 73.6001C388.975 72.7015 398.931 72.6295 394.187 79.531C389.442 86.4325 378.55 73.6001 378.55 73.6001C378.55 73.6001 366.149 53.1113 378.55 56.3464Z" fill="#F3DC98"/>
<path d="M367.228 70.3842C371.541 68.2275 380.168 76.3152 380.168 76.3152C380.168 76.3152 385.56 81.707 385.021 83.3244C382.432 85.4811 378.91 79.9096 377.472 76.8543C375.855 77.9325 361.836 73.0801 367.228 70.3842Z" fill="#F3DC98"/>
<path d="M344.234 49.2825C352.324 51.3929 350.243 59.5416 348.191 63.3521C352.735 62.6193 360.854 62.5606 356.985 68.1885C353.116 73.8164 344.234 63.3521 344.234 63.3521C344.234 63.3521 334.122 46.6444 344.234 49.2825Z" fill="#F3DC98"/>
<path d="M335.001 60.7298C338.519 58.9711 345.553 65.5663 345.553 65.5663C345.553 65.5663 349.95 69.9631 349.51 71.282C347.4 73.0407 344.527 68.4974 343.355 66.0059C342.036 66.8851 330.604 62.9282 335.001 60.7298Z" fill="#F3DC98"/>
<path d="M89.5161 97.5906C96.8489 100.179 94.1885 114.305 92.7507 121.314C92.7507 117.864 89.5159 115.923 87.8983 114.844C80.5654 112.256 85.7418 107.116 88.4377 105.139C85.7418 101.545 82.1832 95.0025 89.5161 97.5906Z" fill="#F5BD69"/>
<path d="M72.8016 114.844C66.8707 102.982 92.7507 115.923 92.2121 121.854C87.8986 117.972 84.6636 118.439 83.046 119.158C73.5566 121.746 71.7233 116.462 72.8016 114.844Z" fill="#F5BD69"/>
<path d="M72.2625 123.471C79.811 119.784 88.9767 118.079 91.1334 122.393C84.6631 127.785 74.9579 129.402 75.4971 125.089C72.4776 125.951 70.6445 125.628 72.2625 123.471Z" fill="#F5BD69"/>
<path d="M96.525 120.236C96.525 121.13 95.8008 121.854 94.9075 121.854C94.0141 121.854 93.2899 121.13 93.2899 120.236C93.2899 119.343 94.0141 118.619 94.9075 118.619C95.8008 118.619 96.525 119.343 96.525 120.236Z" fill="#F5BD69"/>
<path d="M93.2207 121.185C93.6603 120.857 94.2869 121.161 94.3022 121.709C94.3078 121.908 94.2256 122.099 94.0775 122.232L88.2479 127.461C87.809 127.855 87.1299 127.801 86.7587 127.343C86.3902 126.888 86.4741 126.217 86.9433 125.867L93.2207 121.185Z" fill="#F5BD69"/>
</g>
<defs>
<clipPath id="clip0_311_960">
<rect width="430" height="812" fill="white"/>
</clipPath>
</defs>
</svg>
