<svg width="430" height="932" viewBox="0 0 430 932" fill="none" xmlns="http://www.w3.org/2000/svg">
<g clip-path="url(#clip0_425_1703)">
<path d="M381.743 784.364C371.439 776.457 358.954 777.555 354 779.093C368.019 789.965 365.56 797.95 365.56 807.426C365.56 815.361 374.147 818.628 379.431 818.957C384.716 819.287 392.643 821.923 391.321 833.124C390 844.326 389.67 872.001 407.835 878.26C426.001 884.52 445.487 862.776 452.093 848.609C458.698 834.442 446.739 817.36 438.112 818.957C431.054 820.264 426.552 809.183 425.231 804.791C423.36 800.068 418.933 788.12 407.835 789.965C393.964 792.271 394.624 794.248 381.743 784.364Z" fill="#5DCB84" fill-opacity="0.73"/>
<path d="M384.787 799.834C384.529 799.737 384.24 799.867 384.142 800.125C384.044 800.383 384.174 800.672 384.432 800.77L384.787 799.834ZM400.909 809.811L400.609 810.211L400.909 809.811ZM411.692 821.134L411.266 821.396L411.692 821.134ZM417.623 833.535L418.093 833.364L417.623 833.535ZM384.432 800.77C390.96 803.245 395.156 806.122 400.609 810.211L401.209 809.411C395.731 805.304 391.447 802.359 384.787 799.834L384.432 800.77ZM400.609 810.211C404.902 813.432 407.696 815.594 411.266 821.396L412.118 820.872C408.451 814.913 405.542 812.661 401.209 809.411L400.609 810.211ZM411.266 821.396C413.426 824.906 414.352 826.497 415.011 827.946C415.675 829.405 416.064 830.71 417.153 833.706L418.093 833.364C417.026 830.429 416.606 829.038 415.922 827.532C415.232 826.016 414.272 824.372 412.118 820.872L411.266 821.396ZM417.153 833.706C418.312 836.891 419.684 842.072 420.893 846.581C421.496 848.828 422.058 850.906 422.529 852.47C422.765 853.251 422.981 853.913 423.17 854.407C423.265 854.653 423.356 854.868 423.445 855.039C423.522 855.188 423.632 855.379 423.788 855.499L424.398 854.706C424.435 854.734 424.409 854.727 424.333 854.58C424.269 854.456 424.192 854.28 424.104 854.049C423.928 853.589 423.72 852.955 423.487 852.181C423.02 850.635 422.463 848.572 421.859 846.322C420.656 841.836 419.27 836.601 418.093 833.364L417.153 833.706Z" fill="#62B27E" fill-opacity="0.59"/>
<path d="M399.811 799.425C399.754 804.276 400.678 806.836 403.046 811.287" stroke="#7CBC8C" stroke-linecap="round"/>
<path d="M387.429 809.273C392.275 808.642 396.174 808.821 401.448 810.351" stroke="#7CBC8C" stroke-linecap="round"/>
<path d="M417.084 813.586C415.826 819.023 415.19 823.042 416.545 830.3" stroke="#7CBC8C" stroke-linecap="round"/>
<path d="M401.655 821.715C405.933 821.504 409.605 823.085 415.466 827.604" stroke="#7CBC8C" stroke-linecap="round"/>
<path d="M428.883 828.392C423.788 833.104 422.227 836.601 421.048 843.862" stroke="#7CBC8C" stroke-linecap="round"/>
<path d="M369.356 729.156C369.725 720.672 383.957 723.469 391.027 725.928C392.718 727.312 396.283 730.724 397.021 733.306C397.943 736.533 368.895 739.761 369.356 729.156Z" fill="#73C68F" fill-opacity="0.6"/>
<path d="M395.171 769.135C395.811 760.668 414.807 768.309 418.644 775.618C419.66 777.552 423.955 784.954 421.277 784.751C403.34 783.394 394.405 779.25 395.171 769.135Z" fill="#73C68F" fill-opacity="0.6"/>
<path d="M382.091 745.222C379.816 737.041 397.388 741.829 404 745.338C405.46 746.963 408.463 750.879 408.799 753.543C409.218 756.874 385.955 759.126 382.091 745.222Z" fill="#73C68F" fill-opacity="0.6"/>
<path d="M398.613 793.9C397.846 784.205 416.552 793.432 423.218 798.823C424.504 800.969 427.024 806.028 426.818 809.097C426.561 812.933 399.916 810.377 398.613 793.9Z" fill="#73C68F" fill-opacity="0.6"/>
<path d="M440.362 775.725C432.985 773.512 428.374 788.021 427.452 796.013L428.835 804.312C440.362 810.306 449.584 778.491 440.362 775.725Z" fill="#73C68F" fill-opacity="0.6"/>
<path d="M431.539 758.96C424.145 757.216 419.924 770.152 419.208 777.233L420.792 784.519C432.409 789.482 440.781 761.141 431.539 758.96Z" fill="#73C68F" fill-opacity="0.6"/>
<path d="M409.915 718.967C401.401 719.878 400.641 733.571 401.95 740.513L405.81 746.853C419.842 747.523 420.558 717.828 409.915 718.967Z" fill="#73C68F" fill-opacity="0.6"/>
<path d="M395.698 698.056C387.338 696.881 385.819 711.25 387.338 718.551L393.022 726.992C406.205 728.282 405.558 699.443 395.698 698.056Z" fill="#73C68F" fill-opacity="0.6"/>
<path d="M421.401 738.885C413.745 737.932 411.334 752.443 411.611 760.184L414.224 767.858C426.53 766.503 430.97 740.077 421.401 738.885Z" fill="#73C68F" fill-opacity="0.6"/>
<path d="M432.524 827.827C426.069 766.504 399.788 728.234 373.506 705.18C410.854 741.144 428.221 806.156 429.758 831.054L432.524 827.827Z" fill="#3F905B" fill-opacity="0.6"/>
<path d="M382.267 712.557C381.037 704.412 374.889 686.645 360.135 680.743C341.692 673.366 378.578 723.623 382.267 712.557Z" fill="#73C68F" fill-opacity="0.6"/>
<path d="M55.4006 688.958C56.3267 680.517 41.8349 681.117 34.4732 682.472C32.5918 683.582 28.5486 686.411 27.4267 688.851C26.0243 691.901 54.2431 699.51 55.4006 688.958Z" fill="#C3EFA8"/>
<path d="M23.8051 724.546C24.4598 716.079 4.52305 720.742 -0.381421 727.382C-1.6792 729.139 -7.05076 735.801 -4.37341 736.008C13.5621 737.396 23.023 734.659 23.8051 724.546Z" fill="#C3EFA8"/>
<path d="M40.3706 702.9C43.8629 695.16 25.7675 697.22 18.6986 699.682C17.0086 701.066 13.4443 704.479 12.7077 707.061C11.7869 710.289 34.4359 716.054 40.3706 702.9Z" fill="#C3EFA8"/>
<path d="M16.6357 748.499C18.8686 739.033 -1.02392 745.307 -8.43225 749.621C-10.0295 751.547 -13.2898 756.164 -13.5531 759.228C-13.8822 763.058 12.8413 764.585 16.6357 748.499Z" fill="#C3EFA8"/>
<path d="M-10.592 708.957C-3.01906 708.357 -0.814822 721.785 -1.18398 728.892L-3.85854 735.852C-16.0949 738.991 -20.0583 709.706 -10.592 708.957Z" fill="#73C68F" fill-opacity="0.6"/>
<path d="M16.864 672.718C25.1407 674.914 23.8085 688.563 21.4584 695.225L16.6792 700.904C2.70877 699.432 6.51814 669.973 16.864 672.718Z" fill="#C3EFA8"/>
<path d="M34.097 654.213C42.5379 654.323 41.8537 668.756 39.2414 675.741L32.3395 683.219C19.1145 682.489 24.1408 654.084 34.097 654.213Z" fill="#C3EFA8"/>
<path d="M2.48195 690.657C10.1933 690.88 10.3697 705.589 8.91767 713.197L5.16816 720.384C-6.78905 717.174 -7.15729 690.379 2.48195 690.657Z" fill="#73C68F" fill-opacity="0.6"/>
<path d="M-22.042 776.871C-6.33332 717.243 25.4639 683.417 54.9465 664.63C12.5629 694.494 -14.492 756.107 -19.7987 780.482L-22.042 776.871Z" fill="#3F905B" fill-opacity="0.6"/>
<path d="M45.1657 670.589C47.6201 662.725 56.399 646.1 71.8796 642.511C91.2303 638.026 47.128 682.087 45.1657 670.589Z" fill="#C3EEA8"/>
<path d="M75.058 666.776C84.9789 669.364 82.4268 679.356 79.9106 684.029C85.4821 683.131 95.4389 683.059 90.6941 689.96C85.9493 696.862 75.058 684.029 75.058 684.029C75.058 684.029 62.6569 663.541 75.058 666.776Z" fill="#F3DC98"/>
<path d="M63.7352 680.813C68.0486 678.657 76.6755 686.744 76.6755 686.744C76.6755 686.744 82.0673 692.136 81.5281 693.754C78.9401 695.91 75.4174 690.339 73.9796 687.283C72.3621 688.362 58.3434 683.509 63.7352 680.813Z" fill="#F3DC98"/>
<path d="M392.542 664.762C399.875 667.351 397.215 681.477 395.777 688.486C395.777 685.036 392.542 683.095 390.924 682.016C383.592 679.428 388.768 674.288 391.464 672.311C388.768 668.716 385.209 662.174 392.542 664.762Z" fill="#F5BD69"/>
<path d="M375.828 682.016C369.897 670.154 395.777 683.094 395.238 689.026C390.925 685.144 387.69 685.611 386.072 686.33C376.583 688.918 374.749 683.634 375.828 682.016Z" fill="#F5BD69"/>
<path d="M375.289 690.643C382.837 686.956 392.003 685.251 394.16 689.565C387.689 694.956 377.984 696.574 378.523 692.261C375.504 693.123 373.671 692.8 375.289 690.643Z" fill="#F5BD69"/>
<path d="M399.551 687.408C399.551 688.301 398.827 689.026 397.934 689.026C397.04 689.026 396.316 688.301 396.316 687.408C396.316 686.515 397.04 685.791 397.934 685.791C398.827 685.791 399.551 686.515 399.551 687.408Z" fill="#F5BD69"/>
<path d="M396.247 688.357C396.686 688.029 397.313 688.333 397.328 688.881C397.334 689.08 397.252 689.271 397.104 689.404L391.274 694.633C390.835 695.026 390.156 694.972 389.785 694.514C389.416 694.06 389.5 693.389 389.969 693.039L396.247 688.357Z" fill="#F5BD69"/>
<path d="M468.222 169.5C468.222 286.861 354.95 382 215.222 382C75.4936 382 -37.7784 286.861 -37.7784 169.5C-37.7784 118.047 -37.7786 66.0005 -37.7771 -42.9996C102.722 -42.9998 136.753 -42.9997 215.222 -42.9997C293.691 -42.9997 338.722 -42.9997 468.222 -43C468.222 105.5 468.222 118.047 468.222 169.5Z" fill="url(#paint0_linear_425_1703)"/>
<path d="M430.222 282.001C452.222 249.5 455.223 237 459.723 224.5C464.223 212 277.252 174.001 218.671 174C160.089 174 91.1948 216.953 112.021 275.889C128.544 322.646 192.432 316.53 208.556 296.209C224.679 275.889 221.433 248.323 200.507 241.34C179.582 234.357 160.591 268.477 176.363 271.269C180.119 258.3 195.034 257.744 193.532 273.098C188.405 295.558 156.941 290.005 147.028 263.823C146.53 262.508 146.471 261.027 146.807 259.662C159.601 207.613 218.102 216.146 224.17 217.177C224.536 217.24 224.835 217.276 225.206 217.305C231.173 217.778 286.738 223.573 333.583 277.983C366.639 316.376 375.806 319.564 393.722 320C405.141 310.67 418.722 296.001 430.222 282.001Z" fill="#ECD386" fill-opacity="0.54"/>
<path d="M468.223 84.5012C452.021 87.457 352.718 136.853 268.326 84.5012C258.586 78.4589 248.486 73.33 238.164 69.0005C122.722 20.5806 -7.7769 52.9997 -37.7776 73C-37.7776 73 -38.278 148 -37.7776 176C-37.2773 204 -27.7776 230 -27.7776 230C54.8926 148.292 188.021 121.488 274.641 155.234C364.774 190.35 456.276 174.358 468.223 176V84.5012Z" fill="#F3DC98" fill-opacity="0.45"/>
</g>
<defs>
<linearGradient id="paint0_linear_425_1703" x1="215.222" y1="-43.002" x2="215.222" y2="381.998" gradientUnits="userSpaceOnUse">
<stop stop-color="#F7EDCF"/>
<stop offset="1" stop-color="#F3DC98"/>
</linearGradient>
<clipPath id="clip0_425_1703">
<rect width="430" height="932" fill="white"/>
</clipPath>
</defs>
</svg>
