<svg width="430" height="812" viewBox="0 0 430 812" fill="none" xmlns="http://www.w3.org/2000/svg">
<g clip-path="url(#clip0_416_976)">
<path d="M431.5 248.196V135.096C431.5 147.128 267.188 77.3428 204.672 77.3428C142.155 77.3428 68.6332 126.712 90.8586 194.453C108.491 248.196 176.67 241.166 193.877 217.809C211.084 194.453 207.619 162.769 185.288 154.743C162.958 146.716 142.69 185.934 159.522 189.143C163.53 174.236 179.448 173.598 177.845 191.245C172.347 217.182 138.48 210.618 128.069 180.158C127.646 178.919 127.593 177.535 127.878 176.258C141.316 115.936 204.03 125.778 210.538 126.97C210.93 127.042 211.253 127.084 211.65 127.118C218.041 127.664 277.323 134.336 327.303 196.86C380.203 263.036 412.264 243.383 431.5 248.196Z" fill="#F6E6B6"/>
<path d="M269.604 -25.2838C167.127 -97.938 24.9021 -55.0442 1.5 -48.2877V147.863C84.1702 54.4801 189.3 16.9875 275.919 55.5563C366.053 95.6896 419.553 93.8128 431.5 95.6896V20.5829C415.299 23.9611 353.997 34.5488 269.604 -25.2838Z" fill="#F6E6B6"/>
</g>
<defs>
<clipPath id="clip0_416_976">
<rect width="430" height="812" fill="white"/>
</clipPath>
</defs>
</svg>
