<svg width="253" height="108" viewBox="0 0 253 108" fill="none" xmlns="http://www.w3.org/2000/svg">
<g filter="url(#filter0_d_141_487)">
<path d="M77.5033 74.1541C77.5033 70.3666 78.2473 67.0073 79.7353 64.0765C81.2684 61.1456 83.32 58.8911 85.8901 57.3129C88.5053 55.7348 91.4137 54.9457 94.6151 54.9457C97.4107 54.9457 99.8455 55.5093 101.92 56.6366C104.039 57.7638 105.73 59.1842 106.992 60.8976V55.5544H116.529V93.0244H106.992V87.5459C105.775 89.3045 104.084 90.7699 101.92 91.9422C99.8005 93.0695 97.343 93.6331 94.5474 93.6331C91.3911 93.6331 88.5053 92.8215 85.8901 91.1983C83.32 89.575 81.2684 87.298 79.7353 84.3671C78.2473 81.3911 77.5033 77.9868 77.5033 74.1541ZM106.992 74.2894C106.992 71.9898 106.541 70.0284 105.64 68.4051C104.738 66.7368 103.52 65.4743 101.987 64.6175C100.454 63.7157 98.8085 63.2648 97.05 63.2648C95.2914 63.2648 93.6682 63.6932 92.1802 64.5499C90.6922 65.4066 89.4748 66.6692 88.5279 68.3375C87.6261 69.9607 87.1752 71.8996 87.1752 74.1541C87.1752 76.4087 87.6261 78.3926 88.5279 80.1061C89.4748 81.7744 90.6922 83.0595 92.1802 83.9613C93.7133 84.8631 95.3365 85.314 97.05 85.314C98.8085 85.314 100.454 84.8856 101.987 84.0289C103.52 83.1271 104.738 81.8646 105.64 80.2413C106.541 78.573 106.992 76.589 106.992 74.2894ZM130.579 51.0905C128.911 51.0905 127.513 50.5719 126.386 49.5349C125.304 48.4527 124.762 47.1225 124.762 45.5444C124.762 43.9662 125.304 42.6586 126.386 41.6215C127.513 40.5393 128.911 39.9983 130.579 39.9983C132.247 39.9983 133.623 40.5393 134.705 41.6215C135.832 42.6586 136.396 43.9662 136.396 45.5444C136.396 47.1225 135.832 48.4527 134.705 49.5349C133.623 50.5719 132.247 51.0905 130.579 51.0905ZM135.246 55.5544V93.0244H125.777V55.5544H135.246ZM154.07 42.9742V93.0244H144.601V42.9742H154.07ZM198.258 73.4778C198.258 74.8305 198.168 76.0479 197.987 77.1301H170.595C170.82 79.8355 171.767 81.9548 173.436 83.4878C175.104 85.0209 177.156 85.7874 179.59 85.7874C183.108 85.7874 185.61 84.2769 187.098 81.2559H197.311C196.229 84.8631 194.155 87.839 191.089 90.1837C188.022 92.4833 184.257 93.6331 179.793 93.6331C176.186 93.6331 172.94 92.8441 170.054 91.2659C167.213 89.6426 164.981 87.3656 163.358 84.4347C161.78 81.5039 160.991 78.1221 160.991 74.2894C160.991 70.4116 161.78 67.0073 163.358 64.0765C164.936 61.1456 167.146 58.8911 169.986 57.3129C172.827 55.7348 176.096 54.9457 179.793 54.9457C183.356 54.9457 186.534 55.7122 189.33 57.2453C192.171 58.7784 194.358 60.9652 195.891 63.8059C197.469 66.6015 198.258 69.8255 198.258 73.4778ZM188.451 70.7724C188.406 68.3375 187.526 66.3986 185.813 64.9557C184.1 63.4677 182.003 62.7238 179.523 62.7238C177.178 62.7238 175.194 63.4452 173.571 64.8881C171.993 66.2859 171.023 68.2473 170.663 70.7724H188.451ZM240.002 73.4778C240.002 74.8305 239.911 76.0479 239.731 77.1301H212.339C212.564 79.8355 213.511 81.9548 215.179 83.4878C216.848 85.0209 218.899 85.7874 221.334 85.7874C224.851 85.7874 227.354 84.2769 228.842 81.2559H239.055C237.973 84.8631 235.898 87.839 232.832 90.1837C229.766 92.4833 226.001 93.6331 221.537 93.6331C217.93 93.6331 214.683 92.8441 211.798 91.2659C208.957 89.6426 206.725 87.3656 205.102 84.4347C203.524 81.5039 202.734 78.1221 202.734 74.2894C202.734 70.4116 203.524 67.0073 205.102 64.0765C206.68 61.1456 208.889 58.8911 211.73 57.3129C214.571 55.7348 217.84 54.9457 221.537 54.9457C225.099 54.9457 228.278 55.7122 231.074 57.2453C233.914 58.7784 236.101 60.9652 237.634 63.8059C239.213 66.6015 240.002 69.8255 240.002 73.4778ZM230.194 70.7724C230.149 68.3375 229.27 66.3986 227.557 64.9557C225.843 63.4677 223.747 62.7238 221.267 62.7238C218.922 62.7238 216.938 63.4452 215.315 64.8881C213.737 66.2859 212.767 68.2473 212.406 70.7724H230.194Z" fill="#F5BD69"/>
</g>
<path d="M31.6288 74.4787C23.49 84.1681 12.5258 85.2762 7.31393 80.2914C1.83007 75.0464 0.965678 53.4208 25.0762 46.2416C46.4883 39.8659 43.6728 60.7853 46.7898 61.9182C47.1364 61.9208 47.4522 61.8743 47.7324 61.7489C47.9104 61.6435 48.1026 61.4982 48.3112 61.3097C48.1404 61.511 47.9468 61.653 47.7324 61.7489C47.3629 61.9678 47.0549 62.0146 46.7898 61.9182C43.7124 61.8952 38.2029 57.9985 33.5258 70.9693C33.0728 72.2255 32.4877 73.4562 31.6288 74.4787Z" fill="url(#paint0_linear_141_487)"/>
<path d="M6.52628 79.7247C32.8644 108.53 57.2968 91.8867 67.0314 75.1989C75.4858 60.7056 71.6566 37.7196 71.6566 37.7196C71.0203 16.4846 73.8231 11.1413 89.3752 20.2452C79.5492 5.11006 48.6209 0.769331 39.8346 39.9104L35.4753 63.055C34.2572 70.6094 26.7622 84.5193 6.52628 79.7247Z" fill="url(#paint1_linear_141_487)"/>
<defs>
<filter id="filter0_d_141_487" x="70.5034" y="33.998" width="182.498" height="73.6353" filterUnits="userSpaceOnUse" color-interpolation-filters="sRGB">
<feFlood flood-opacity="0" result="BackgroundImageFix"/>
<feColorMatrix in="SourceAlpha" type="matrix" values="0 0 0 0 0 0 0 0 0 0 0 0 0 0 0 0 0 0 127 0" result="hardAlpha"/>
<feOffset dx="3" dy="4"/>
<feGaussianBlur stdDeviation="5"/>
<feComposite in2="hardAlpha" operator="out"/>
<feColorMatrix type="matrix" values="0 0 0 0 0 0 0 0 0 0 0 0 0 0 0 0 0 0 0.1 0"/>
<feBlend mode="normal" in2="BackgroundImageFix" result="effect1_dropShadow_141_487"/>
<feBlend mode="normal" in="SourceGraphic" in2="effect1_dropShadow_141_487" result="shape"/>
</filter>
<linearGradient id="paint0_linear_141_487" x1="31.7185" y1="39.4046" x2="16.2233" y2="84.312" gradientUnits="userSpaceOnUse">
<stop stop-color="#F5BD69"/>
<stop offset="0.425" stop-color="#F7EDCF"/>
</linearGradient>
<linearGradient id="paint1_linear_141_487" x1="72.2141" y1="1.76482" x2="18.1983" y2="96.0569" gradientUnits="userSpaceOnUse">
<stop stop-color="#FFF2CA"/>
<stop offset="0.44" stop-color="#FEE6B3"/>
<stop offset="0.654688" stop-color="#FBD38B"/>
<stop offset="1" stop-color="#EFAA56"/>
</linearGradient>
</defs>
</svg>
